<svg xmlns="http://www.w3.org/2000/svg" viewBox="0 0 48.27 21.52"><defs><style>.cls-1{fill:#e6293b;}.cls-2{fill:#68539d;}.cls-3{fill:#243988;}</style></defs><title>Recurso 3</title><g id="Capa_2" data-name="Capa 2"><g id="Layer_1" data-name="Layer 1"><path class="cls-1" d="M19.93,8.79c.61-.88,3.35-4,4.19-4.13,1.6-.17,5.81,6.56,6.34,7.28.69.92,1.68,1.07-3.78,4.49-1.38,1-1.31,1.28-3.53-.17s-5.5-3.05-5.29-3.9A18.22,18.22,0,0,1,19.93,8.79Z"/><path class="cls-2" d="M36.46,4.54C35.11,5,29.84,7,29.52,7.11s-1.05.16-.64,1a41.16,41.16,0,0,0,2.43,3.89c.18.22.56.81,1.88-.34s12.61-9,12.94-9.25,1.66-1.23,1.64-1.3.89-.87-2.6.25S36.46,4.54,36.46,4.54Z"/><path class="cls-3" d="M38.31,8.81c-.83.58-9.48,6.8-10,7.18s-2,1.47-1.61,1.74,6.17,1.32,8.85,1.83,3.54,1.14,4.92-1.5,6.57-12.9,6.86-13.65,1.88-3.81,0-2.26S38.31,8.81,38.31,8.81Z"/><path class="cls-1" d="M25.3,18.41c-1.63,0-12.44,1.91-13.08,2.05s-2.07.24-.84.4c2.55.33,22.13,1.31,26.93,0C38.55,20.72,28.13,18.41,25.3,18.41Z"/><path class="cls-2" d="M3.07,4C1.6,2.89-.52.91.12,3.29S4.27,16,6.32,19c1.48,2.15,1.75,1.37,4.58,1s9.67-1.69,11-1.89,3.59,0-.37-2.42S4.45,5,3.07,4Z"/><path class="cls-3" d="M9.1,7.11s4.4,2.85,5.07,3.25,2.65,2.08,3,1.68a9.23,9.23,0,0,0,1.28-2.25c.17-.53.6-.63-1.81-1.74S5.28,2.35,3.7,1.54.46-.22.2.05.12.82,1.83,2.16C3.87,3.77,9.1,7.11,9.1,7.11Z"/></g></g></svg>