<?xml version="1.0" encoding="UTF-8" standalone="no"?>
<!-- Created with Inkscape (http://www.inkscape.org/) -->

<svg
   xmlns:dc="http://purl.org/dc/elements/1.1/"
   xmlns:cc="http://creativecommons.org/ns#"
   xmlns:rdf="http://www.w3.org/1999/02/22-rdf-syntax-ns#"
   xmlns:svg="http://www.w3.org/2000/svg"
   xmlns="http://www.w3.org/2000/svg"
   xmlns:sodipodi="http://sodipodi.sourceforge.net/DTD/sodipodi-0.dtd"
   xmlns:inkscape="http://www.inkscape.org/namespaces/inkscape"
   version="1.1"
   id="svg2"
   xml:space="preserve"
   width="377.94666"
   height="377.94666"
   viewBox="0 0 377.94666 377.94666"
   sodipodi:docname="logo-trans.svg"
   inkscape:version="0.92.3 (unknown)"><metadata
     id="metadata8"><rdf:RDF><cc:Work
         rdf:about=""><dc:format>image/svg+xml</dc:format><dc:type
           rdf:resource="http://purl.org/dc/dcmitype/StillImage" /><dc:title></dc:title></cc:Work></rdf:RDF></metadata><defs
     id="defs6"><clipPath
       clipPathUnits="userSpaceOnUse"
       id="clipPath18"><path
         d="M 0,283.46 H 283.46 V 0 H 0 Z"
         id="path16"
         inkscape:connector-curvature="0" /></clipPath></defs><sodipodi:namedview
     pagecolor="#ffffff"
     bordercolor="#666666"
     borderopacity="1"
     objecttolerance="10"
     gridtolerance="10"
     guidetolerance="10"
     inkscape:pageopacity="0"
     inkscape:pageshadow="2"
     inkscape:window-width="1858"
     inkscape:window-height="1053"
     id="namedview4"
     showgrid="false"
     inkscape:zoom="1.7661456"
     inkscape:cx="123.31815"
     inkscape:cy="173.30473"
     inkscape:window-x="62"
     inkscape:window-y="27"
     inkscape:window-maximized="1"
     inkscape:current-layer="g10" /><g
     id="g10"
     inkscape:groupmode="layer"
     inkscape:label="Logo Web"
     transform="matrix(1.3333333,0,0,-1.3333333,0,377.94667)"><g
       id="g12"
       transform="matrix(1.2015775,0,0,1.4038111,-27.477278,-26.020132)"><g
         id="g14"
         clip-path="url(#clipPath18)"
         transform="matrix(1,0,0.00388486,1,-0.55060211,0)"><g
           id="g20"
           transform="translate(49.2529,132.8506)"><path
             d="m 0,0 c 0,1.949 -0.714,3.581 -2.146,4.9 -1.417,1.317 -3.142,1.973 -5.172,1.973 -3.846,0 -6.72,-1.371 -8.637,-4.094 -1.609,-2.323 -2.418,-5.431 -2.418,-9.351 v -1.899 -1.654 c 0,-2.629 0.16,-4.598 0.47,-5.881 0.513,-2.06 1.397,-3.084 2.635,-3.084 2.999,0 6.329,2.469 9.997,7.414 C -1.758,-6.943 0,-3.047 0,0 m 7.437,-39.33 c 0,-0.57 -0.238,-1.147 -0.735,-1.74 -0.49,-0.592 -1.02,-0.889 -1.584,-0.889 -1.292,0 -3.248,1.418 -5.852,4.268 -2.615,2.832 -5.183,5.652 -7.72,8.447 -3.155,2.99 -5.835,4.496 -8.052,4.496 -4.74,0 -2.71,-7.971 -2.255,-10.549 0.262,-1.441 0.388,-2.607 0.388,-3.478 0,-1.348 -0.126,-2.332 -0.388,-2.95 -0.414,-0.988 -1.163,-1.478 -2.247,-1.478 -1.129,0 -1.986,0.531 -2.554,1.592 -0.571,1.052 -0.857,2.879 -0.857,5.457 0,4.041 0.969,7.998 1.139,12.031 0.167,4.078 0,8.162 0.007,12.236 0,2.407 0.01,4.832 0.041,7.25 0.034,2.557 -0.296,5.209 0.673,7.637 0.867,2.17 2.534,3.846 4.496,5.043 2.948,1.802 6.512,2.703 10.698,2.703 3.72,0 6.59,-0.952 8.603,-2.853 C 6.747,2.68 4.043,-6.98 0.503,-12.418 c -1.377,-2.111 -3.043,-4.02 -4.988,-5.625 -0.935,-0.775 -1.932,-1.506 -2.993,-2.098 -1.026,-0.588 -1.23,-0.724 -0.561,-1.711 0.731,-1.074 1.572,-2.066 2.306,-3.127 0.717,-0.99 1.391,-1.837 2.01,-2.572 0.986,-1.135 2.384,-2.449 4.185,-3.947 1.449,-1.238 2.922,-2.469 4.414,-3.715 0.674,-0.625 1.221,-1.221 1.639,-1.791 0.616,-0.885 0.922,-1.652 0.922,-2.326"
             style="fill:#404040;fill-opacity:1;fill-rule:nonzero;stroke:none"
             id="path22"
             inkscape:connector-curvature="0" /></g><g
           id="g24"
           transform="translate(81.4971,128.6689)"><path
             d="M 0,0 C 0,1.2 -0.078,2.237 -0.231,3.107 -0.449,4.346 -0.602,5.791 -2.017,5.43 -2.856,5.219 -3.798,4.679 -4.618,4.346 -6.049,3.777 -7.522,3.195 -8.988,2.727 c -3.72,-1.18 -6.22,-3.823 -7.222,-7.586 -0.994,-3.748 -1.813,-11.059 2.485,-13.211 2.775,-1.391 6.128,0.224 7.988,2.363 1.792,2.07 3.006,5.148 4.009,7.672 C -0.718,-5.475 0,-2.762 0,0 m 4.417,2.482 c 0,-5.75 -1.313,-11.31 -3.955,-16.703 -3.251,-6.631 -7.467,-9.939 -12.633,-9.939 -3.206,0 -5.641,1.144 -7.324,3.416 -1.677,2.279 -2.517,5.047 -2.517,8.305 0,3.326 0.741,6.603 1.548,9.793 1.043,4.203 2.72,9.8 7.528,10.939 1.598,0.378 3.513,0.143 5.03,0.725 C -4.455,10.574 1.415,13.152 3.56,8.307 4.135,7.069 4.417,5.124 4.417,2.482"
             style="fill:#404040;fill-opacity:1;fill-rule:nonzero;stroke:none"
             id="path26"
             inkscape:connector-curvature="0" /></g><g
           id="g28"
           transform="translate(102.3423,146.6436)"><path
             d="m 0,0 c 0,-1.085 -0.299,-1.986 -0.891,-2.703 -0.595,-0.738 -1.439,-1.096 -2.523,-1.096 -0.568,0 -1.208,0.415 -1.939,1.255 -0.717,0.816 -1.085,1.534 -1.085,2.159 0,0.83 0.429,1.643 1.279,2.442 0.857,0.806 1.745,1.201 2.683,1.201 0.769,0 1.377,-0.334 1.812,-1.011 C -0.218,1.578 0,0.826 0,0 m -0.477,-15.248 c 0.368,-4.994 -0.268,-10.113 -0.584,-15.107 -0.412,-6.721 -0.619,-11.76 -0.619,-15.114 0,-5.892 -0.153,-9.902 -0.466,-12.01 -0.615,-4.234 -2.01,-7.4 -4.186,-9.47 -5.135,-4.887 -13.758,-4.631 -19.91,-2.078 -2.211,0.939 -4.383,2.088 -6.437,3.332 -5.996,3.605 -8.998,7.183 -8.998,10.695 0,1.135 0.479,2.047 1.438,2.752 1.004,0.727 2.966,2.291 3.918,0.887 1.228,-1.789 0.863,-4.135 1.734,-6.067 0.898,-1.976 2.643,-3.629 4.386,-4.863 3.466,-2.479 7.567,-3.723 12.324,-3.723 5.213,0 8.76,2.662 10.62,7.981 1.139,3.207 1.703,8.066 1.703,14.578 0,2.172 -0.142,5.75 -0.425,10.728 -0.285,4.989 -0.428,8.233 -0.428,9.747 0,2.564 -1.642,12.324 3.098,11.88 2.088,-0.189 2.69,-2.144 2.832,-4.148"
             style="fill:#404040;fill-opacity:1;fill-rule:nonzero;stroke:none"
             id="path30"
             inkscape:connector-curvature="0" /></g><g
           id="g32"
           transform="translate(134.6611,119.3311)"><path
             d="m 0,0 c 0.058,0.529 0.068,1.111 0.003,1.73 -0.196,2 -0.803,4.043 -1.452,5.942 -0.656,1.918 -1.061,3.879 -1.969,5.716 -0.296,0.605 -0.799,1.962 -1.643,1.921 -1.193,-0.061 -2.241,-3.16 -2.56,-3.996 -0.823,-2.118 -1.609,-4.243 -2.397,-6.379 -0.799,-2.176 -1.904,-4.237 -2.721,-6.411 -0.36,-0.964 -0.996,-2.406 -1.003,-3.451 -0.007,-1.515 1.989,-1.261 3.182,-1.261 4.558,0 9.961,1.421 10.56,6.189 m 11.763,-24.701 c 0,-1.445 -0.882,-4.194 -2.751,-3.963 -1.725,0.211 -2.596,3.174 -3.068,4.543 -1.415,4.119 -0.919,15.6 -7.508,15.6 -5.921,0 -12.018,-1.528 -14.385,-7.512 -0.758,-1.922 -1.428,-3.908 -2.054,-5.881 -0.435,-1.379 -1.177,-2.801 -2.323,-3.727 -0.986,-0.793 -3.268,-1.675 -4.145,-0.244 -0.285,0.469 -0.428,1.033 -0.428,1.713 0,0.666 1.01,4.541 3.023,11.617 1.809,6.305 3.798,13.137 5.971,20.469 1.391,4.596 2.785,9.221 4.186,13.869 0.361,1.296 0.891,2.295 1.589,2.988 0.693,0.692 1.662,1.045 2.907,1.045 5.794,0 7.039,-6.4 8.489,-10.705 C 3.435,8.613 5.047,1.9 7.346,-4.547 7.654,-5.383 8.179,-6.387 8.06,-7.311 7.898,-8.617 6.924,-9.199 7.148,-10.654 c 0.221,-1.442 0.901,-2.813 1.442,-4.168 2.115,-5.289 3.173,-8.588 3.173,-9.879"
             style="fill:#404040;fill-opacity:1;fill-rule:nonzero;stroke:none"
             id="path34"
             inkscape:connector-curvature="0" /></g><g
           id="g36"
           transform="translate(228.0537,105.6709)"><path
             d="m 0,0 c 0.026,-3.039 -3.189,-1.877 -4.646,-0.582 -2.816,2.527 -3.2,7.193 -3.448,10.719 -0.089,1.179 -0.03,2.377 -0.241,3.541 -0.092,0.511 -0.296,1.093 -0.572,1.519 -0.989,-0.697 -1.88,-2.58 -2.485,-3.679 -0.787,-1.432 -1.598,-2.86 -2.446,-4.235 -1.438,-2.377 -2.978,-4.705 -4.679,-6.902 -2.785,-3.615 -4.951,-5.418 -6.502,-5.418 -1.499,0 -2.652,0.783 -3.458,2.367 -0.799,1.568 -1.197,3.16 -1.197,4.766 0,2.066 0.541,6.797 1.625,14.183 0.263,1.774 0.49,3.567 0.634,5.362 0.081,1.05 0.35,2.129 0.227,3.183 -0.289,2.703 -5.183,-2.537 -5.873,-3.277 -1.22,-1.311 -1.798,-4.404 -4.176,-1.875 -3.074,3.305 3.976,8.644 5.911,10.398 1.839,1.674 4.734,4.724 7.472,4.724 1.026,0 1.75,-0.319 2.165,-0.962 0.418,-0.646 0.622,-1.541 0.622,-2.676 0,-2.323 -0.339,-5.186 -1.01,-8.597 -1.5,-7.553 -2.248,-12.436 -2.248,-14.653 0,-1.22 -1.071,-5.07 0.993,-5.168 1.211,-0.062 2.534,1.826 3.133,2.653 2.237,3.154 3.61,6.793 5.345,10.211 1.792,3.537 3.649,7.015 5.332,10.595 1.085,2.306 2.213,4.598 3.56,6.76 1.106,1.762 2.697,3.856 4.271,1.221 0.469,-0.768 0.697,-1.547 0.697,-2.323 0,-2.216 -0.153,-4.984 -0.462,-8.296 C -1.929,18.561 -3.367,12.42 -2.112,7.471 -1.871,6.549 -0.024,2.477 0,0"
             style="fill:#404040;fill-opacity:1;fill-rule:nonzero;stroke:none"
             id="path38"
             inkscape:connector-curvature="0" /></g><g
           id="g40"
           transform="translate(251.4043,150.8569)"><path
             d="m 0,0 c -0.136,4.479 -4.614,0.772 -5.607,-1.34 -1.962,-4.169 -3.159,-8.723 -3.452,-13.323 -0.22,-3.686 -0.408,-7.74 0.218,-11.384 0.598,-3.428 6.38,15.913 7.073,18.14 C -0.959,-5.36 0.082,-2.72 0,0 m 7.04,-41.85 c 0.183,-0.244 0.241,-0.574 0.114,-1.061 -0.485,-1.808 -2.933,-3.045 -4.677,-3.045 -1.443,0 -3.102,0.444 -4.963,1.344 -2.019,0.977 -3.812,2.197 -5.475,3.703 -0.847,0.752 -1.54,1.711 -2.617,0.811 -0.984,-0.834 -1.538,-2.402 -2.37,-3.389 -1.396,-1.654 -2.792,-2.469 -4.188,-2.469 -0.414,0 -0.743,0.018 -1.01,0.073 -2.695,0.521 -0.716,2.578 0.236,3.959 1.186,1.496 1.992,2.523 2.4,3.088 1.239,1.601 2.095,3.244 2.562,4.933 0.462,1.676 0.69,3.543 0.69,5.611 0,0.975 -0.072,2.54 -0.228,4.663 -0.153,2.111 -0.228,3.787 -0.228,5.035 0,5.522 0.901,10.973 2.709,16.343 2.432,7.291 5.894,10.929 10.39,10.929 1.493,0 2.581,-0.646 3.251,-1.941 C 4.152,5.764 4.41,4.434 4.41,2.768 c 0,-3.468 -0.873,-7.931 -2.636,-13.36 -0.57,-1.711 -2.189,-6.118 -4.882,-13.207 -1.758,-4.616 -2.629,-7.709 -2.629,-9.268 0,-3.562 1.391,-5.953 4.187,-7.141 1.751,-0.751 3.672,-0.955 5.556,-1.082 0.905,-0.064 2.503,0.137 3.034,-0.56"
             style="fill:#404040;fill-opacity:1;fill-rule:nonzero;stroke:none"
             id="path42"
             inkscape:connector-curvature="0" /></g><g
           id="g44"
           transform="translate(179.6777,90.9424)"><path
             d="m 0,0 c 4.229,-6.77 6.357,-11.703 6.357,-14.813 0,-2.777 -1.043,-4.951 -3.106,-6.505 -1.86,-1.389 -4.234,-2.084 -7.131,-2.084 -4.849,0 -9.094,1.15 -12.709,3.49 -4.083,2.627 -6.127,6.195 -6.127,10.695 0,3.406 1.166,7.403 3.492,12.012 2.635,5.258 5.424,7.908 8.372,7.908 C -8.066,10.703 -4.445,7.133 0,0 m -0.548,20.303 c 3.523,1.601 7.032,3.203 10.544,4.808 1.331,0.604 -1.349,2.297 -1.876,2.534 -2.19,0.996 -3.925,-0.487 -5.702,-1.573 -1.734,-1.047 -3.48,-2.056 -5.224,-3.074 -1.438,-0.836 -2.91,-1.592 -4.336,-2.428 -1.077,-0.629 -2.509,-1.959 -3.662,-0.713 -0.673,0.717 -0.932,2.309 -0.741,3.256 0.388,2.037 2.496,3.926 3.944,5.256 1.966,1.811 3.931,3.613 5.893,5.43 1.962,2.217 2.945,4.488 2.945,6.814 0,2.225 -0.952,3.914 -2.863,5.084 -1.918,1.157 -4.057,1.739 -6.44,1.739 -4.364,0 -8.604,-0.828 -12.784,-2.025 -2.4,-0.686 -5.263,-1.393 -7.365,-2.784 -1.203,-0.816 -1.677,-2.452 -0.397,-3.418 1.404,-1.07 3.958,-0.466 5.487,0.014 3.466,1.06 6.935,2.196 10.519,2.822 2.308,0.404 4.768,1.027 7.059,0.16 3.058,-1.146 1.963,-3.959 0.265,-5.879 -1.645,-1.857 -3.72,-3.418 -5.73,-4.849 -4.91,-3.514 -7.355,-6.485 -7.355,-8.916 0,-1.038 0.408,-2.225 1.238,-3.565 1.272,-2.162 2.108,-3.543 1.112,-6.019 -0.775,-1.887 -2.156,-3.53 -3.366,-5.155 -2.786,-3.763 -4.462,-6.195 -5.03,-7.281 -1.612,-3.148 -2.407,-6.711 -2.407,-10.695 0,-6.262 2.559,-10.694 7.674,-13.323 3.871,-2.029 9.329,-3.029 16.357,-3.029 3.978,0 7.151,0.674 9.532,2.006 2.999,1.707 4.492,4.369 4.492,7.992 0,3.662 -1.493,8.106 -4.492,13.326 -2.122,3.621 -4.907,7.596 -8.369,11.95 -1.395,1.74 -3.853,3.543 -4.125,5.896 -0.329,2.869 3.115,4.535 5.203,5.639"
             style="fill:#404040;fill-opacity:1;fill-rule:nonzero;stroke:none"
             id="path46"
             inkscape:connector-curvature="0" /></g><g
           id="g48"
           transform="translate(126.7817,190.1602)"><path
             d="m 0,0 c 0,-0.034 0.006,-0.065 0.013,-0.109 0.119,-1.336 14.745,-9.589 15.806,-10.269 2.033,-1.316 2.806,-0.442 4.548,0.83 1.577,1.155 11.252,7.032 11.174,8.756 C 31.483,0.21 29.765,2.081 29.224,2.972 28.459,4.23 18.305,19.907 15.01,19.067 11.983,18.291 5.094,9.113 3.938,7.556 2.871,5.635 -0.119,2.367 0,0"
             style="fill:#f32837;fill-opacity:1;fill-rule:nonzero;stroke:none"
             id="path50"
             inkscape:connector-curvature="0" /></g><g
           id="g52"
           transform="translate(160.1348,190.7754)"><path
             d="m 0,0 c 0.649,-0.184 1.339,0.109 2.132,0.816 1.026,0.912 30.873,21.998 32.444,23.066 0.755,0.514 2.231,1.649 2.51,2.516 0.605,1.861 -2.632,0.204 -3.615,-0.091 -3.295,-1.01 -6.549,-2.146 -9.8,-3.279 C 16.148,20.403 -6.173,12.681 -6.958,11.841 -8.318,10.399 -2.486,2.897 -1.633,1.507 -1.096,0.64 -0.565,0.146 0,0"
             style="fill:#69519b;fill-opacity:1;fill-rule:nonzero;stroke:none"
             id="path54"
             inkscape:connector-curvature="0" /></g><g
           id="g56"
           transform="translate(148.0664,178.3403)"><path
             d="m 0,0 c 0.102,-0.541 0.911,-0.912 2.233,-1.221 1.895,-0.429 3.812,-0.826 5.723,-1.18 4.51,-0.84 9.029,-1.643 13.559,-2.398 1.693,-0.282 3.394,-0.564 5.077,-0.887 3.785,-0.738 4.573,1.877 6.137,4.727 1.721,3.145 3.489,6.23 5.149,9.412 3.67,7.049 14.163,27.197 13.081,29.228 C 49.137,37.211 47.694,35.515 46.213,34.43 41.995,31.355 37.783,28.275 33.556,25.201 28.486,21.504 23.419,17.801 18.355,14.112 12.659,9.96 6.757,6.08 1.221,1.727 0.296,1 -0.082,0.445 0,0"
             style="fill:#001ca8;fill-opacity:1;fill-rule:nonzero;stroke:none"
             id="path58"
             inkscape:connector-curvature="0" /></g><g
           id="g60"
           transform="translate(144.584,176.5273)"><path
             d="m 0,0 c -0.466,0 -0.928,-0.024 -1.408,-0.085 -3.125,-0.408 -6.239,-1.061 -9.349,-1.591 -6.025,-1.034 -12.055,-2.061 -18.084,-3.095 -1.744,0 -3.869,-0.248 -5.46,-1.003 9.28,-1.136 18.812,-1.265 28.143,-1.442 9.541,-0.194 19.141,-0.343 28.679,0.235 2.795,0.163 5.999,0.211 8.706,1.061 -8.08,1.567 -16.15,3.186 -24.243,4.686 C 4.615,-0.799 2.373,-0.024 0,0"
             style="fill:#f32837;fill-opacity:1;fill-rule:nonzero;stroke:none"
             id="path62"
             inkscape:connector-curvature="0" /></g><g
           id="g64"
           transform="translate(124.8672,191.5171)"><path
             d="m 0,0 c 0.187,0.061 0.398,0.245 0.707,0.575 0.551,0.594 3.758,5.55 2.755,6.736 -0.351,0.412 -16.969,8.682 -18.013,9.212 -7.121,3.605 -14.32,7.267 -21.814,10.045 -0.867,0.333 -2.612,1.119 -3.506,0.901 C -41.782,27.007 -27.5,17.39 -24.13,15.292 -17.428,11.133 -2.245,1.169 -1.251,0.531 -0.612,0.119 -0.327,-0.116 0,0"
             style="fill:#001ca8;fill-opacity:1;fill-rule:nonzero;stroke:none"
             id="path66"
             inkscape:connector-curvature="0" /></g><g
           id="g68"
           transform="translate(84.6084,214.9878)"><path
             d="m 0,0 c -0.653,-0.592 0.17,-3.023 0.33,-3.673 0.37,-1.516 0.792,-3.023 1.248,-4.506 1.078,-3.478 2.349,-6.896 3.651,-10.306 2.487,-6.492 5.021,-13.113 8.366,-19.223 0.84,-1.518 2.003,-4.017 3.533,-5.01 0.371,-0.245 1.163,-0.466 2.248,-0.69 3.683,0.636 7.376,1.272 11.065,1.911 6.434,1.112 12.875,2.247 19.319,3.323 1.34,0.22 2.686,0.441 4.04,0.69 1.011,0.176 2.905,0.122 2.309,1.431 -0.861,1.887 -16.15,10.351 -20.873,13.408 -5.319,3.452 -10.637,6.89 -15.965,10.324 C 13.418,-8.539 7.706,-4.584 1.904,-0.776 1.394,-0.433 0.585,0.469 0.027,0.023 0.017,0.013 0.01,0.013 0,0"
             style="fill:#69519b;fill-opacity:1;fill-rule:nonzero;stroke:none"
             id="path70"
             inkscape:connector-curvature="0" /></g><path
           style="fill:#a0a0a0;stroke:none;stroke-width:0.40036723"
           d="m 35.470567,257.57043 c -2.271025,-1.59069 -2.935453,-7.04088 -1.823937,-14.96144 0.548473,-3.90837 0.760306,-9.21408 0.967085,-24.22222 0.301444,-21.87901 0.240377,-21.45713 3.645198,-25.18255 6.989949,-7.64811 23.366518,-8.86205 29.403718,-2.17959 2.916721,3.22846 3.997597,7.42218 3.332566,12.93012 -0.436882,3.61836 -2.357198,9.08266 -4.376066,12.4522 -1.923266,3.20997 -6.270728,7.75718 -9.574904,10.01482 -1.541756,1.05344 -2.800407,2.19882 -2.797003,2.54531 0.0096,0.97607 6.025502,8.78001 8.664479,11.2397 1.299388,1.21112 4.214537,3.79141 6.478109,5.73399 5.937795,5.09577 6.96081,7.29306 4.495272,9.65519 -2.300655,2.20417 -4.18629,0.89448 -13.682589,-9.50339 -8.725179,-9.55354 -12.401727,-12.29166 -16.50434,-12.29166 -4.481656,0 -5.439514,3.83829 -3.485609,13.96741 0.60437,3.13307 0.520568,7.48998 -0.16974,8.82489 -0.908114,1.7561 -2.863556,2.17403 -4.572239,0.97722 z m 13.966061,-32.28317 c 2.443456,-1.12046 8.046263,-6.85948 10.96688,-11.23349 2.888435,-4.32582 4.930099,-8.93803 5.282018,-11.93231 0.548691,-4.6685 -2.169126,-8.7941 -6.67473,-10.13212 -2.511535,-0.74585 -3.62712,-0.77649 -6.451616,-0.17719 -6.08017,1.29008 -9.642465,5.25153 -11.183356,12.43645 -0.245302,1.14381 -0.354815,5.22511 -0.264234,9.84744 0.127511,6.50689 0.283071,8.19526 0.885274,9.60824 1.258232,2.95226 3.440918,3.41668 7.439764,1.58298 z"
           id="path76"
           inkscape:connector-curvature="0"
           transform="matrix(0.75000002,0,0.00291365,-0.75000002,-0.55060034,283.46001)" /><path
           style="fill:#a0a0a0;stroke:none;stroke-width:0.40036723"
           d="m 37.025244,258.22331 c 0,-0.2202 -0.238843,-0.40037 -0.530761,-0.40037 -0.901037,0 -2.176964,-1.71413 -2.676837,-3.59616 -0.525925,-1.98012 -0.42066,-13.61583 0.1232,-13.61822 0.175297,-8e-4 0.296986,-0.76711 0.270418,-1.70297 -0.05353,-1.88575 0.67291,-28.63539 0.978485,-36.03048 0.143181,-3.46507 0.397392,-5.14997 0.966491,-6.40587 1.56518,-3.45409 6.78563,-7.2892 11.583743,-8.50981 1.483659,-0.37743 2.967811,-0.7753 3.298114,-0.88416 1.044171,-0.34412 7.731622,-0.0897 9.608813,0.36557 2.891398,0.70124 5.383819,2.14555 7.134296,4.1342 2.329454,2.6464 3.081709,5.11616 3.044731,9.99631 -0.02586,3.41276 -0.221432,4.56504 -1.325084,7.80716 -0.712111,2.09192 -1.938944,4.95733 -2.726295,6.36758 -1.416977,2.53799 -6.13625,7.60872 -10.431596,11.20846 -1.94122,1.62684 -2.668991,2.84269 -1.70156,2.84269 0.220202,0 0.355326,0.15433 0.300275,0.34295 -0.13976,0.47888 2.463411,4.06109 2.951168,4.06109 0.219515,0 0.291412,0.17427 0.159771,0.38727 -0.131641,0.213 0.127974,0.61667 0.576922,0.89704 0.448949,0.28037 0.81627,0.69561 0.81627,0.92276 0,0.48141 5.084682,5.49343 10.10795,9.9635 5.455501,4.85471 6.296204,6.44732 4.518566,8.55992 -2.40365,2.85658 -3.15735,2.34314 -14.989911,-10.21157 -5.06689,-5.37612 -9.203077,-9.13957 -9.835714,-8.94934 -0.155847,0.0469 -0.495639,-0.2051 -0.755094,-0.55993 -0.259454,-0.35483 -0.873625,-0.67541 -1.364825,-0.71241 -0.491199,-0.037 -0.89309,-0.23075 -0.89309,-0.43057 0,-0.67452 -4.553273,-0.0739 -5.48454,0.72351 -0.484174,0.41456 -0.78883,0.90178 -0.677014,1.0827 0.111817,0.18092 0.0046,0.32895 -0.238244,0.32895 -0.24285,0 -0.405233,0.22521 -0.36085,0.50046 0.04438,0.27525 -0.05547,0.81157 -0.2219,1.19181 -0.166429,0.38024 -0.199788,1.64139 -0.07413,2.80257 0.125656,1.16117 0.227765,2.69676 0.22691,3.41242 -8.41e-4,0.71565 0.153052,1.30119 0.342014,1.30119 0.188963,0 0.26424,0.54049 0.167284,1.2011 -0.09696,0.66061 -0.02071,1.20104 0.169433,1.20096 0.190144,-8e-5 0.322136,1.80045 0.293316,4.00116 -0.05434,4.14927 -0.660338,6.00816 -1.958665,6.00816 -0.325227,0 -0.591322,0.18017 -0.591322,0.40037 0,0.2202 -0.180165,0.40037 -0.400367,0.40037 -0.220202,0 -0.400367,-0.18017 -0.400367,-0.40037 z m 9.79819,-32.01189 c 0.130149,-0.21059 0.477882,-0.29031 0.77274,-0.17716 0.294859,0.11315 0.788833,-0.0298 1.097721,-0.31776 0.308888,-0.28792 0.827573,-0.57843 1.152633,-0.64558 0.32506,-0.0671 0.791045,-0.38244 1.035523,-0.70064 0.244477,-0.3182 0.554416,-0.57855 0.688753,-0.57855 0.433178,0 5.472801,-5.13715 5.472801,-5.57871 0,-0.23474 0.180538,-0.4268 0.401195,-0.4268 0.97843,0 7.476474,-10.39627 6.510173,-10.41568 -0.16792,-0.003 -0.08465,-0.14631 0.18504,-0.31765 0.269691,-0.17134 0.545151,-0.66404 0.612133,-1.09488 0.06698,-0.43085 0.26233,-1.00856 0.434106,-1.28382 0.171777,-0.27525 0.200973,-0.68062 0.06488,-0.90082 -0.136092,-0.2202 -0.05664,-0.40037 0.176555,-0.40037 0.250277,0 0.420393,-0.94322 0.415203,-2.30211 -0.0095,-2.48731 -1.128791,-5.55236 -2.174084,-5.95347 -0.338302,-0.12982 -0.521687,-0.38717 -0.407522,-0.5719 0.249437,-0.40359 -3.2202,-2.50226 -4.264025,-2.57916 -0.404933,-0.0298 -0.860022,-0.17802 -1.011309,-0.32931 -0.433924,-0.43392 -4.870772,-0.32035 -5.150238,0.13183 -0.138312,0.2238 -0.419193,0.30325 -0.624179,0.17656 -0.204987,-0.12669 -0.597909,-0.0898 -0.873162,0.082 -0.275252,0.17177 -0.854725,0.36739 -1.287717,0.4347 -1.060099,0.16479 -2.504741,1.11739 -4.336003,2.85915 -1.606738,1.52821 -3.220534,4.1787 -2.800202,4.59903 0.137367,0.13737 0.05957,0.24976 -0.172877,0.24976 -0.23245,0 -0.720887,1.12604 -1.085415,2.5023 -0.543305,2.05122 -0.633009,3.94573 -0.497627,10.50964 0.09083,4.40404 0.275869,8.63581 0.411189,9.40393 0.264398,1.50083 1.479567,3.40782 2.171519,3.40782 0.233138,0 0.559011,0.13512 0.724162,0.30027 0.429104,0.42911 2.077467,0.37136 2.358033,-0.0826 z"
           id="path78"
           inkscape:connector-curvature="0"
           transform="matrix(0.75000002,0,0.00291365,-0.75000002,-0.55060034,283.46001)" /><path
           style="fill:#a0a0a0;stroke:none;stroke-width:0.40036723"
           d="m 35.765897,257.43523 c -0.98547,-0.8123 -1.577774,-1.73099 -1.871444,-2.90266 -0.493312,-1.9682 -0.686176,-10.17293 -0.263969,-11.22962 0.155439,-0.38902 0.196267,-1.15902 0.09073,-1.71111 -0.105538,-0.55209 -0.02945,-1.10419 0.169089,-1.22689 0.198538,-0.12271 0.334717,-0.88411 0.30262,-1.69201 -0.09038,-2.27493 0.790436,-33.4777 1.052359,-37.27968 0.288373,-4.18593 0.900367,-5.69888 3.299801,-8.15763 3.965023,-4.06304 10.007745,-6.36446 16.496687,-6.2829 6.382972,0.0802 9.845698,1.33485 12.730976,4.6127 4.022386,4.56967 4.266062,11.77818 0.69356,20.51716 -0.787305,1.92588 -1.472467,3.65568 -1.522583,3.84399 -0.282508,1.06151 -7.316822,8.37196 -10.800943,11.22494 -1.688558,1.38268 -2.451957,2.64572 -1.599111,2.64572 0.166448,0 0.522088,0.49545 0.790312,1.10101 0.268223,0.60555 1.032865,1.69766 1.699203,2.42691 0.666338,0.72925 1.211524,1.43479 1.211524,1.56788 0,0.13309 0.261021,0.52734 0.580049,0.87612 0.319026,0.34877 1.264894,1.41158 2.101927,2.36178 0.837034,0.95021 3.838691,3.81657 6.670349,6.3697 5.236696,4.7216 7.463098,7.27142 7.463098,8.54725 0,1.10292 -1.912502,3.10929 -3.096484,3.24847 -0.723516,0.0851 -1.522652,-0.25797 -2.487914,-1.06793 -1.789871,-1.50188 -11.624634,-11.5339 -11.628514,-11.86175 -0.0016,-0.13378 -1.489179,-1.5751 -3.305768,-3.20294 -1.81659,-1.62784 -3.652214,-3.275 -4.079166,-3.66035 -0.426952,-0.38536 -1.012552,-0.70064 -1.301333,-0.70064 -0.288782,0 -0.525058,-0.16803 -0.525058,-0.37339 0,-0.38013 -1.555521,-1.05138 -2.101927,-0.90704 -0.165152,0.0436 -0.300276,-0.10084 -0.300276,-0.32104 0,-0.63256 -3.143435,-0.46618 -4.643808,0.2458 -0.748935,0.35539 -1.3617,0.89589 -1.3617,1.2011 0,0.30521 -0.168968,0.55493 -0.375485,0.55493 -0.428102,0 -0.488042,0.45666 -0.499238,3.80349 -0.01315,3.93179 0.07976,4.9609 0.469653,5.20187 0.203554,0.1258 0.268609,0.49321 0.144566,0.81646 -0.124043,0.32325 -0.102584,0.90302 0.04769,1.28837 0.440626,1.12994 0.565204,5.30314 0.222943,7.46827 -0.23725,1.50084 -0.603095,2.23018 -1.464386,2.91939 -0.631469,0.50531 -1.2422,0.91963 -1.35718,0.92073 -0.11498,10e-4 -0.85786,-0.53281 -1.650844,-1.18646 z M 46.77783,226.31707 c 0.152476,-0.15248 0.677958,-0.33785 1.167738,-0.41194 0.48978,-0.0741 0.950938,-0.3108 1.024796,-0.52601 0.07386,-0.2152 0.304273,-0.28622 0.512033,-0.15782 0.207761,0.1284 2.275354,-1.62708 4.594651,-3.90108 4.144687,-4.06374 8.267256,-9.52284 9.320418,-12.34208 0.287907,-0.77071 0.787906,-1.89674 1.11111,-2.50229 0.323204,-0.60556 0.465315,-1.10101 0.315802,-1.10101 -0.149513,0 -0.05411,-0.26236 0.212016,-0.58302 0.266122,-0.32065 0.375326,-0.75862 0.242676,-0.97325 -0.13265,-0.21463 -0.05808,-0.5034 0.165716,-0.64172 0.59321,-0.36662 0.497452,-3.45019 -0.165494,-5.32918 -0.916011,-2.59625 -4.495097,-5.7666 -6.932582,-6.14087 -0.166203,-0.0255 -0.52321,-0.13121 -0.79335,-0.23487 -0.413909,-0.15884 -1.87893,-0.0679 -5.314162,0.33001 -0.330303,0.0383 -0.825757,0.24722 -1.101009,0.46437 -0.275253,0.21715 -0.500459,0.27902 -0.500459,0.13748 0,-0.58531 -3.485561,1.5798 -5.030589,3.12483 -1.405682,1.40568 -2.968441,3.71151 -3.002261,4.4298 -0.0051,0.10841 -0.304509,0.876 -0.665343,1.70575 -0.523611,1.20407 -0.661552,2.96358 -0.68325,8.71526 -0.04622,12.25103 0.301676,14.33974 2.598299,15.59985 1.089986,0.59805 2.500046,0.76099 2.923244,0.33779 z"
           id="path80"
           inkscape:connector-curvature="0"
           transform="matrix(0.75000002,0,0.00291365,-0.75000002,-0.55060034,283.46001)" /><path
           style="fill:#a0a0a0;stroke:none;stroke-width:0.40036723"
           d="m 35.765897,257.43523 c -0.984164,-0.81123 -1.578705,-1.73254 -1.873152,-2.90266 -0.601736,-2.39128 -0.559725,-13.2102 0.05516,-14.2051 0.136372,-0.22066 0.237619,-1.19387 0.224994,-2.16268 -0.04842,-3.71577 0.855499,-35.1205 1.082076,-37.59436 0.323384,-3.53084 1.250889,-5.42766 3.846578,-7.86656 4.089878,-3.84283 9.599939,-5.83083 15.940216,-5.75114 4.457008,0.056 6.562163,0.46589 9.163623,1.78415 7.135747,3.61596 8.737896,12.3942 4.260913,23.34571 -0.787305,1.92588 -1.472467,3.65568 -1.522583,3.84399 -0.100733,0.3785 -1.646039,2.26444 -4.094792,4.99742 -0.880808,0.98304 -3.042791,3.05232 -4.804407,4.5984 -3.415407,2.99753 -4.105224,3.8182 -3.549151,4.22242 0.191119,0.13893 0.594039,0.73158 0.895376,1.31701 0.301337,0.58542 1.066753,1.63249 1.700922,2.32682 0.63417,0.69433 1.153037,1.42251 1.153037,1.61818 0,0.19566 0.225206,0.49984 0.500459,0.67593 0.275252,0.17609 1.405244,1.32569 2.511093,2.55465 1.105848,1.22897 4.397706,4.44328 7.31524,7.14292 6.754483,6.25001 7.372718,7.32682 5.490732,9.56344 -0.968521,1.15102 -3.40614,1.96804 -3.40614,1.14163 0,-0.21876 -0.118193,-0.27956 -0.262649,-0.1351 -0.230104,0.2301 -11.884804,-11.31646 -13.090974,-12.96952 -0.881221,-1.2077 -7.669753,-7.17256 -8.166116,-7.17528 -0.275252,-0.002 -0.500459,-0.17078 -0.500459,-0.37614 0,-0.20537 -0.405371,-0.48694 -0.900826,-0.62572 -0.495454,-0.13877 -1.291621,-0.44381 -1.769258,-0.67784 -1.539618,-0.7544 -4.381776,-0.0481 -5.486459,1.36342 -0.882575,1.12772 -0.973914,1.62282 -0.990971,5.37149 -0.01033,2.2711 0.144026,4.22989 0.343021,4.35288 0.198996,0.12299 0.260321,0.48809 0.136278,0.81134 -0.124043,0.32325 -0.09032,0.90302 0.07494,1.28837 0.165261,0.38536 0.262915,1.17823 0.217008,1.76195 -0.04591,0.58372 0.08282,1.16408 0.286063,1.28969 0.22235,0.13742 0.176817,1.45683 -0.114318,3.31268 -0.41176,2.62476 -0.656807,3.22269 -1.644713,4.01319 -0.638476,0.51089 -1.254939,0.92978 -1.369919,0.93088 -0.11498,10e-4 -0.85786,-0.53281 -1.650844,-1.18646 z m 12.240577,-31.74176 c 1.924417,-0.72084 3.092873,-1.58077 5.84808,-4.30394 6.098556,-6.02765 8.496713,-9.45506 10.379262,-14.83388 0.621491,-1.77572 1.239757,-3.33836 1.373925,-3.47253 0.379945,-0.37995 0.287949,-2.38371 -0.198054,-4.3138 -0.649542,-2.57957 -4.113396,-6.33439 -6.219913,-6.7424 -0.409686,-0.0793 -1.067773,-0.28361 -1.462415,-0.45392 -0.648573,-0.27989 -3.56887,-0.10607 -5.087793,0.30283 -0.330303,0.0889 -1.141047,0.30875 -1.801653,0.48851 -0.660606,0.17977 -1.842811,0.72929 -2.627123,1.22117 -1.722995,1.08056 -5.180038,4.84526 -5.180038,5.64102 0,0.31424 -0.288984,1.01238 -0.642188,1.55144 -1.470431,2.24416 -1.607549,20.70664 -0.173682,23.38584 0.395515,0.73903 2.617232,2.42424 3.20228,2.42899 0.101414,8e-4 1.266605,-0.40387 2.589312,-0.89933 z"
           id="path82"
           inkscape:connector-curvature="0"
           transform="matrix(0.75000002,0,0.00291365,-0.75000002,-0.55060034,283.46001)" /><path
           style="fill:#a0a0a0;stroke:none;stroke-width:0.40036723"
           d="m 35.724926,257.40146 c -0.91733,-0.75614 -1.633745,-1.7867 -1.878696,-2.70248 -0.414736,-1.55055 -0.526443,-10.3365 -0.166441,-13.09091 0.379859,-2.90634 0.483833,-5.4395 0.93669,-22.82093 0.458647,-17.60374 0.709132,-20.89573 1.741899,-22.89288 1.694315,-3.27644 7.186297,-6.94525 12.477699,-8.33548 2.469849,-0.64892 11.010563,-1.03734 11.010265,-0.50074 -9.2e-5,0.16515 0.315123,0.30041 0.700476,0.30059 1.442316,6.5e-4 5.548788,2.32535 7.051537,3.99192 2.260888,2.50735 3.083394,4.69656 3.402108,9.05516 0.151542,2.07241 0.136052,3.76802 -0.03442,3.76802 -0.170474,0 -0.313213,0.40538 -0.317199,0.90083 -0.0065,0.81328 -1.812023,6.33788 -3.237523,9.90652 -0.782424,1.95874 -1.757205,3.07914 -7.935509,9.12094 -3.322933,3.24953 -5.263773,5.42768 -4.994438,5.60515 0.242288,0.15963 0.673682,0.74066 0.958655,1.29117 0.984271,1.90139 3.034699,4.16105 10.865979,11.97473 7.612956,7.59584 8.754123,8.92401 8.754123,10.18861 0,1.0514 -1.94225,2.96017 -3.199919,3.14475 -0.662266,0.0972 -1.20412,-0.002 -1.20412,-0.22103 0,-0.21876 -0.112449,-0.2853 -0.249886,-0.14786 -0.137438,0.13744 -0.54281,-0.075 -0.900827,-0.47208 -0.358017,-0.39708 -2.214188,-2.19107 -4.124825,-3.98664 -1.910636,-1.79558 -3.359573,-3.26469 -3.219859,-3.26469 0.139714,0 -1.81026,-2.0899 -4.333276,-4.64421 -4.642878,-4.70048 -9.852894,-8.96828 -10.948239,-8.96828 -0.329027,0 -0.70958,-0.18016 -0.845673,-0.40036 -0.360972,-0.58407 -2.415019,-0.4894 -4.03094,0.18577 -2.06339,0.86214 -2.686432,2.65113 -2.43041,6.97863 0.112106,1.89493 0.310164,4.07591 0.440129,4.84661 0.129965,0.77071 0.232608,1.82018 0.228096,2.33217 -0.0045,0.51198 0.155768,1.23726 0.35618,1.61173 0.227155,0.42445 0.175085,1.7953 -0.138263,3.64005 -0.419821,2.47158 -0.694604,3.11279 -1.667575,3.89133 -0.640711,0.51267 -1.259002,0.93302 -1.373982,0.93412 -0.11498,10e-4 -0.876297,-0.54801 -1.691815,-1.22023 z m 13.11877,-32.18257 c 2.294006,-1.02496 5.969626,-4.27918 8.603077,-7.61676 0.989368,-1.2539 2.177775,-2.73131 2.640904,-3.28314 1.33055,-1.58536 3.397663,-5.66014 4.615568,-9.0984 0.870779,-2.45829 1.064723,-3.5659 0.876306,-5.00459 -0.513429,-3.92034 -3.173192,-7.02497 -7.067841,-8.24999 -1.966809,-0.61864 -2.5818,-0.64749 -4.765821,-0.2236 -5.231715,1.01541 -8.650709,3.50942 -10.651793,7.77003 -1.519452,3.23515 -1.716948,4.84153 -1.692573,13.767 0.02471,9.047 0.41629,11.07335 2.397339,12.40558 1.489932,1.00196 1.829206,0.97062 5.044834,-0.46613 z"
           id="path84"
           inkscape:connector-curvature="0"
           transform="matrix(0.75000002,0,0.00291365,-0.75000002,-0.55060034,283.46001)" /><path
           style="fill:#a0a0a0;stroke:none;stroke-width:0.40036723"
           d="m 35.724926,257.40146 c -0.914746,-0.75401 -1.635464,-1.78932 -1.881384,-2.70259 -0.419036,-1.55618 -0.581816,-11.43299 -0.222347,-13.49117 0.115377,-0.6606 0.389044,-6.69614 0.608149,-13.4123 0.847324,-25.97278 1.055262,-29.39876 1.898893,-31.28619 1.653815,-3.70003 6.966758,-7.44206 12.70784,-8.95043 2.469849,-0.64892 11.010563,-1.03734 11.010265,-0.50074 -9.2e-5,0.16515 0.315123,0.30041 0.700476,0.30059 1.324489,5.9e-4 5.506762,2.30869 6.986668,3.85577 2.20168,2.30161 3.14624,4.80505 3.466747,9.18816 0.151415,2.07068 0.180966,3.81134 0.06567,3.86812 -0.115296,0.0568 -0.517278,1.30914 -0.893294,2.78301 -0.970307,3.80333 -3.132632,9.12069 -4.283019,10.53235 -0.538341,0.6606 -3.322364,3.49908 -6.186718,6.30773 l -5.207917,5.10663 0.62872,1.31844 c 0.929379,1.94893 6.573744,8.50712 9.888468,11.48941 3.857724,3.47084 8.929881,8.65055 9.533339,9.73548 0.772789,1.38937 0.59794,2.4485 -0.586362,3.55184 -1.110362,1.03445 -3.303029,1.72932 -3.303029,1.04675 0,-0.20266 -0.161287,-0.26879 -0.358415,-0.14696 -0.197129,0.12183 -0.471617,-0.0735 -0.609975,-0.43404 -0.138358,-0.36055 -0.336702,-0.57042 -0.440763,-0.46635 -0.104062,0.10406 -1.856432,-1.52953 -3.894157,-3.6302 -13.270047,-13.67996 -15.803571,-15.92733 -19.297468,-17.11782 -2.271677,-0.77403 -4.711492,-0.19774 -5.727485,1.35286 -0.784628,1.1975 -0.944475,5.35513 -0.365688,9.51156 0.18398,1.32122 0.320003,2.8211 0.302273,3.33309 -0.01773,0.51198 0.131736,1.23726 0.332148,1.61173 0.227155,0.42445 0.175085,1.7953 -0.138263,3.64005 -0.419821,2.47158 -0.694604,3.11279 -1.667575,3.89133 -0.640711,0.51267 -1.259002,0.93302 -1.373982,0.93412 -0.11498,10e-4 -0.876297,-0.54801 -1.691815,-1.22023 z m 12.714977,-31.95455 c 5.915247,-2.68722 14.851063,-14.28383 16.700638,-21.67354 1.351932,-5.40146 -1.293754,-10.00499 -6.772999,-11.78513 -1.787215,-0.58064 -2.433764,-0.60807 -4.604223,-0.19533 -6.368376,1.21103 -10.111577,4.69698 -11.789795,10.97954 -0.669666,2.50695 -0.73901,16.46838 -0.09667,19.4635 0.803066,3.74457 3.010806,4.8247 6.563049,3.21096 z"
           id="path86"
           inkscape:connector-curvature="0"
           transform="matrix(0.75000002,0,0.00291365,-0.75000002,-0.55060034,283.46001)" /><path
           style="fill:#ffffff;stroke:none;stroke-width:0.40036723"
           d="m 35.724926,257.40146 c -0.918389,-0.75701 -1.635372,-1.78897 -1.883714,-2.71124 -0.529672,-1.96706 -0.567687,-11.69822 -0.0644,-16.48527 0.219935,-2.09192 0.514244,-8.9382 0.65402,-15.21396 0.413858,-18.58158 0.789647,-24.45078 1.695244,-26.4769 1.663821,-3.72251 7.682045,-7.90477 13.110368,-9.11082 2.201312,-0.48908 10.610164,-0.79801 10.609898,-0.38979 -9.2e-5,0.14064 0.588655,0.36618 1.308325,0.50119 3.339777,0.62655 7.301129,3.88562 8.713491,7.16875 0.855633,1.98897 1.701456,9.17813 1.153023,9.80023 -0.140922,0.15985 -0.469018,1.19146 -0.729102,2.29247 -0.260085,1.10101 -1.140365,3.80251 -1.956179,6.00333 l -1.483298,4.00149 -6.1056,6.12128 c -3.35808,3.3667 -6.1056,6.27976 -6.1056,6.47347 0,0.19372 1.056533,1.76409 2.347852,3.48973 2.409663,3.22011 5.043293,6.01033 12.597837,13.34687 5.817803,5.64992 6.454359,6.9433 4.372029,8.88328 -1.110362,1.03445 -3.303029,1.72932 -3.303029,1.04675 0,-0.20266 -0.161287,-0.26879 -0.358415,-0.14696 -0.197129,0.12183 -0.471617,-0.0735 -0.609975,-0.43404 -0.138358,-0.36055 -0.337416,-0.5697 -0.442351,-0.46477 -0.214665,0.21467 -11.033688,-10.58069 -12.026809,-12.0005 -0.351713,-0.50282 -2.198535,-2.27725 -4.10405,-3.94316 -4.969695,-4.34481 -7.811584,-5.67125 -10.563188,-4.93032 -0.83849,0.22578 -1.780254,0.80881 -2.09281,1.29562 -0.911251,1.41928 -1.14402,4.34216 -0.649103,8.15079 0.253308,1.94933 0.53628,4.17481 0.628826,4.94552 0.09255,0.7707 0.216084,1.67153 0.274528,2.00183 0.05844,0.33031 -0.03853,1.7523 -0.215496,3.15999 -0.255589,2.03309 -0.557012,2.79469 -1.465716,3.7034 -0.629177,0.62918 -1.296933,1.14396 -1.483902,1.14396 -0.186969,0 -1.007186,-0.55 -1.822704,-1.22222 z M 49.729657,224.7594 c 0.967531,-0.56701 3.090154,-2.36193 4.716939,-3.98872 6.352551,-6.35255 11.004721,-14.80732 11.004721,-19.99977 0,-5.54385 -5.518236,-9.86316 -11.424546,-8.94238 -5.019146,0.78248 -8.617968,3.2553 -10.58733,7.27478 -1.787892,3.64909 -2.110654,6.21841 -1.919462,15.27979 0.175108,8.29912 0.391973,9.50052 1.986705,11.00608 0.767331,0.72442 1.227486,0.83326 2.69459,0.63738 0.973079,-0.12993 2.560852,-0.70015 3.528383,-1.26716 z"
           id="path88"
           inkscape:connector-curvature="0"
           transform="matrix(0.75000002,0,0.00291365,-0.75000002,-0.55060034,283.46001)" /><path
           style="fill:#ffffff;stroke:none;stroke-width:0.14155118"
           d="m 89.820663,238.38238 c -1.76944,-0.34015 -3.480396,-1.02822 -4.789286,-1.92605 -2.281407,-1.56492 -4.304769,-4.81893 -5.171992,-8.31769 -1.149523,-4.63768 -0.67879,-9.93576 1.673061,-18.83026 1.547198,-5.85136 3.049424,-9.02664 5.338808,-11.28471 1.997609,-1.97028 3.795579,-2.71901 7.054393,-2.93765 2.490499,-0.16709 3.62259,-0.42789 5.739792,-1.32227 5.241801,-2.21434 8.298951,-2.64909 10.747021,-1.52833 2.02368,0.92647 3.26208,3.02337 3.77371,6.3898 0.30734,2.02215 0.22786,7.66223 -0.1476,10.47479 -0.90437,6.77459 -3.26434,13.62524 -6.61939,19.21517 -3.11158,5.18428 -6.80515,8.38637 -11.157938,9.67321 -1.120088,0.33114 -1.564611,0.38179 -3.680331,0.41933 -1.323504,0.0235 -2.565615,0.0121 -2.760248,-0.0253 z m 4.95797,-7.33037 c 2.833791,-0.60078 5.506707,-2.51791 7.327237,-5.25543 0.99769,-1.50022 2.3428,-4.16689 3.47629,-6.89173 1.72359,-4.14339 2.599,-7.21262 2.93929,-10.30527 0.32163,-2.92306 -0.11658,-7.59154 -0.82712,-8.81179 -0.60164,-1.03324 -1.37047,-1.00885 -3.88226,0.12318 -1.79098,0.80716 -4.138904,1.72334 -6.489194,2.53212 -2.349056,0.80836 -3.183176,1.19109 -4.570416,2.09713 -2.76169,1.80371 -4.827154,4.70738 -5.81706,8.17775 -0.76868,2.69481 -1.006628,4.61618 -0.998172,8.06001 0.0069,2.82219 0.04311,3.31387 0.317683,4.31731 1.236842,4.52011 4.510137,6.80762 8.523722,5.95672 z"
           id="path90"
           inkscape:connector-curvature="0"
           transform="matrix(0.75000002,0,0.00291365,-0.75000002,-0.55060034,283.46001)" /><path
           style="fill:#ffffff;stroke:none;stroke-width:0.14155118"
           d="m 111.47799,276.7461 c -5.05486,-0.42731 -8.50315,-1.38997 -13.087204,-3.65356 -8.778783,-4.33492 -14.497202,-8.86464 -16.633248,-13.17566 -0.732808,-1.47897 -0.996464,-2.5467 -0.994768,-4.02856 0.0023,-2.03551 0.628056,-2.98913 2.970694,-4.52739 3.319518,-2.17971 4.4285,-1.35118 5.389192,4.02632 0.222536,1.24565 0.534788,2.6424 0.693894,3.1039 1.1587,3.36088 5.696648,7.48233 10.62815,9.65268 3.25715,1.43347 6.6404,2.15459 10.69195,2.27893 3.93355,0.12072 6.32502,-0.38792 8.91555,-1.89624 1.32432,-0.77109 3.38283,-2.76337 4.28875,-4.15077 2.36917,-3.62837 3.63557,-8.32782 4.29132,-15.92451 0.32544,-3.77022 0.22804,-13.99291 -0.21444,-22.50664 -0.42751,-8.22564 -0.6445,-13.68239 -0.75706,-19.03864 -0.10216,-4.86079 0.23167,-6.81049 1.43621,-8.38803 0.67288,-0.88124 1.31457,-1.16667 2.62283,-1.16667 0.90935,0 1.15894,0.0572 1.73997,0.39873 1.94826,1.14519 2.47299,3.55313 2.31916,10.64226 -0.0439,2.02418 -0.27119,6.10086 -0.50503,9.05928 -0.82258,10.40677 -1.11215,16.12193 -1.2874,25.40844 -0.26412,13.99579 -0.54812,17.16115 -1.91123,21.30129 -2.28704,6.94639 -7.07216,10.96399 -14.58136,12.24254 -1.53931,0.26209 -4.78208,0.4466 -6.01593,0.3423 z"
           id="path92"
           inkscape:connector-curvature="0"
           transform="matrix(0.75000002,0,0.00291365,-0.75000002,-0.55060034,283.46001)" /><path
           style="fill:#a0a0a0;stroke:none;stroke-width:0.14155118"
           d="m 130.70999,186.97233 c -0.79255,-0.5107 -2.046,-1.98168 -2.43376,-2.85611 -0.60909,-1.37356 -0.20473,-2.7353 1.24504,-4.19285 1.35635,-1.36363 2.9096,-1.96907 4.35563,-1.69779 1.27496,0.23918 2.37254,1.92231 2.48541,3.81135 0.17881,2.99256 -1.44614,5.14724 -3.99601,5.29867 -0.92097,0.0547 -1.05242,0.0259 -1.65631,-0.36327 z"
           id="path94"
           inkscape:connector-curvature="0"
           transform="matrix(0.75000002,0,0.00291365,-0.75000002,-0.55060034,283.46001)" /><path
           style="fill:#a0a0a0;stroke:none;stroke-width:0.14155118"
           d="m 190.591,256.73326 c -1.03599,-0.54756 -1.8152,-1.71911 -2.6952,-4.05226 -0.7862,-2.08445 -1.14507,-3.6328 -1.75138,-7.55622 -0.87929,-5.68993 -1.52152,-8.26502 -2.63007,-10.54556 -1.00322,-2.06385 -2.28838,-3.38633 -3.95023,-4.06495 -0.70217,-0.28673 -1.00764,-0.31712 -3.11413,-0.30972 -7.18981,0.0253 -12.71266,2.07929 -16.02631,5.96042 -1.52429,1.78533 -2.4553,3.82007 -4.42806,9.67759 -0.58506,1.73717 -1.28688,3.61009 -1.55961,4.16204 -1.00408,2.03211 -2.5736,3.46803 -4.41099,4.03555 -1.18595,0.3663 -1.6781,0.35968 -2.45687,-0.033 -0.48476,-0.24445 -0.71327,-0.48302 -0.98295,-1.02624 -0.54457,-1.09694 -0.47493,-2.26717 0.3159,-5.30817 2.91385,-11.20474 16.82897,-57.79328 17.89961,-59.9288 0.6244,-1.24544 1.56419,-2.24648 2.57238,-2.74004 0.68276,-0.33425 1.00922,-0.39708 2.29209,-0.44116 2.43912,-0.0838 4.08711,0.49203 5.73823,2.00498 1.46684,1.34409 2.54626,3.04893 3.58325,5.65941 0.37811,0.95184 2.54132,7.64169 3.73953,11.56474 0.27345,0.89531 1.26716,4.29093 2.20823,7.54583 1.95214,6.75184 3.25933,10.93228 4.2798,13.68685 0.50787,1.37092 0.72929,2.19485 0.78354,2.91561 0.0715,0.94983 0.0439,1.07509 -0.50528,2.29475 -1.10586,2.45596 -1.10125,2.48101 1.8179,9.86484 1.30709,3.30622 2.76032,7.5542 3.19601,9.34238 0.45899,1.88381 0.45444,3.14821 -0.0164,4.56996 -0.80919,2.44321 -2.36736,3.53071 -3.89895,2.7212 z M 169.72631,226.8069 c 6.3316,-1.12915 9.82611,-4.37796 9.83451,-9.14305 0.004,-2.52892 -0.59187,-4.92999 -3.3958,-13.67283 -0.67216,-2.09581 -1.78392,-4.49936 -2.36737,-5.11809 -0.93614,-0.99272 -2.07393,-0.39099 -3.14179,1.66157 -0.5815,1.11773 -1.44504,3.28638 -3.83957,9.64256 -0.69243,1.83802 -1.85857,4.67838 -2.59142,6.31191 -1.63695,3.64873 -2.84177,6.76195 -3.06779,7.92702 -0.2828,1.45782 0.017,2.18007 1.06702,2.5706 0.62343,0.23186 5.90362,0.1054 7.50221,-0.17969 z"
           id="path96"
           inkscape:connector-curvature="0"
           transform="matrix(0.75000002,0,0.00291365,-0.75000002,-0.55060034,283.46001)" /><path
           style="fill:#a0a0a0;stroke:none;stroke-width:0.14155118"
           d="m 230.31022,291.82822 c -16.22781,-1.05147 -24.84259,-6.78463 -26.46826,-17.61467 -0.28243,-1.88155 -0.28059,-6.20225 0.004,-8.36989 0.58533,-4.46513 1.97511,-8.43815 4.07028,-11.63588 1.1079,-1.69091 3.64091,-5.21542 6.14556,-8.55113 3.66042,-4.87499 4.57507,-6.69514 4.5679,-9.09006 -0.004,-1.32911 -0.41984,-2.46982 -1.75011,-4.80067 -1.22008,-2.13777 -1.56972,-2.96446 -1.79086,-4.23432 -0.39071,-2.24365 0.74452,-4.63091 3.60715,-7.5854 1.71669,-1.77177 3.40072,-3.17155 6.87281,-5.71269 4.74018,-3.46922 7.3523,-5.98161 8.41965,-8.0982 1.48037,-2.93561 0.76744,-4.8571 -2.1914,-5.90624 -0.81805,-0.29006 -1.17908,-0.32634 -3.25567,-0.32717 -2.11797,-8.5e-4 -2.60596,0.05 -5.23712,0.54571 -3.71223,0.69939 -6.73091,1.46874 -11.67825,2.97633 -4.76532,1.45213 -5.62684,1.64278 -7.4053,1.63875 -1.5513,-0.004 -2.30749,-0.25322 -3.10761,-1.02618 -0.64752,-0.62553 -0.81431,-1.33351 -0.53805,-2.28383 0.53383,-1.83629 3.18612,-3.25464 9.42312,-5.03914 7.05856,-2.01957 11.13335,-2.80639 16.13476,-3.11558 4.40115,-0.27207 7.07702,0.15712 10.05929,1.61345 4.89305,2.38942 6.23772,7.03718 3.60899,12.47423 -1.10622,2.28802 -1.99467,3.28241 -7.23245,8.09477 -2.64325,2.42857 -5.24654,4.88094 -5.78508,5.44972 -2.07694,2.19355 -3.03278,4.22231 -2.86085,6.07214 0.18175,1.95554 1.04614,3.40049 2.15915,3.60929 0.72535,0.13608 1.49231,-0.13598 3.0256,-1.07323 0.73961,-0.4521 2.45945,-1.4411 3.82188,-2.19777 3.27682,-1.81989 7.347,-4.18909 10.03092,-5.83885 2.90785,-1.78742 3.76873,-2.17863 4.98576,-2.26571 0.58274,-0.0417 1.23669,0.003 1.62531,0.11229 1.35783,0.38017 3.59983,2.18163 3.59983,2.89248 0,0.44018 0.48275,0.19398 -7.50363,3.8268 -3.54154,1.61096 -7.07614,3.25555 -7.85467,3.65464 -2.97305,1.52406 -4.99151,3.18177 -5.74993,4.72228 -0.27904,0.56678 -0.33677,0.90241 -0.33677,1.958 0,1.09425 0.055,1.39131 0.38966,2.10584 0.55787,1.191 1.41574,2.32528 3.22488,4.26396 2.46104,2.63725 6.28155,7.67663 9.54883,12.59523 5.05327,7.60725 7.9484,13.89598 8.92897,19.39534 0.37655,2.11181 0.34934,5.27546 -0.0596,6.93028 -1.31354,5.31535 -5.59891,8.47934 -13.04423,9.63086 -1.8016,0.27865 -7.52233,0.39094 -10.40401,0.20422 z m 5.49245,-3.9629 c 3.15215,-0.27654 5.80955,-1.2264 7.92636,-2.83319 3.06102,-2.32351 4.56446,-6.39576 3.86348,-10.4647 -0.7503,-4.35526 -3.48247,-10.27045 -8.3688,-18.11855 -2.9914,-4.8046 -5.56922,-8.19017 -8.08544,-10.61896 -2.84227,-2.74352 -4.78964,-3.68098 -7.04721,-3.3925 -3.7946,0.48487 -7.18164,3.9684 -10.66431,10.96811 -6.21146,12.4842 -6.01913,21.23702 0.60442,27.50677 4.15645,3.93442 10.60979,6.51074 17.41146,6.95103 2.49304,0.16138 2.54284,0.16141 4.36004,0.002 z"
           id="path98"
           inkscape:connector-curvature="0"
           transform="matrix(0.75000002,0,0.00291365,-0.75000002,-0.55060034,283.46001)" /><path
           style="fill:#ffffff;stroke:none;stroke-width:0.14155118"
           d="m 269.37835,243.57758 c -1.48087,-0.35821 -2.62383,-1.42959 -3.53466,-3.3133 -0.71608,-1.48093 -1.13566,-2.89031 -1.35811,-4.56191 -0.27292,-2.05082 0.18902,-6.72993 1.70394,-17.25998 0.45922,-3.19198 0.93384,-6.69538 1.05471,-7.78532 0.12088,-1.08994 0.32487,-2.87903 0.45333,-3.97574 0.33933,-2.897 0.15063,-3.76711 -0.81697,-3.76711 -1.03363,0 -2.75776,1.19051 -5.47625,3.78133 -1.06994,1.0197 -1.74443,1.82069 -2.51217,2.98334 -0.57724,0.87416 -1.24567,1.75443 -1.4854,1.95615 -0.86349,0.72658 -1.92593,0.37145 -3.14319,-1.05065 -0.69028,-0.80643 -0.85843,-1.37665 -0.77756,-2.63679 0.16031,-2.49799 2.009,-4.90372 7.58703,-9.87318 1.58248,-1.40983 3.39788,-3.02931 4.03421,-3.59884 1.43541,-1.28474 3.59023,-2.74209 4.78385,-3.23542 1.06627,-0.4407 2.89816,-0.60526 3.71966,-0.33414 1.02036,0.33675 1.69309,1.16545 2.06385,2.54236 0.22931,0.85161 0.19481,4.10254 -0.0688,6.48326 -0.29272,2.64349 -0.49799,3.8722 -1.5553,9.30992 -1.51373,7.78505 -2.35335,13.02004 -2.54272,15.85373 -0.0468,0.70068 -0.18772,2.27682 -0.31309,3.50253 -0.3215,3.14329 -0.0734,4.26194 1.04932,4.73104 1.34359,0.56139 3.02295,-0.78079 5.34286,-4.27014 1.43478,-2.15803 2.23436,-3.64251 4.38716,-8.14502 1.0252,-2.14417 3.0179,-6.12931 4.42823,-8.85587 1.41033,-2.72655 3.70272,-7.27834 5.09421,-10.11508 4.84352,-9.8742 6.68938,-12.44395 8.59495,-11.96569 0.9272,0.23272 2.17319,2.07493 2.45928,3.63609 0.0967,0.52768 0.10157,1.82529 0.0146,3.89266 -0.20523,4.87944 -0.43223,7.33711 -1.26698,13.71747 -0.71931,5.49803 -0.84845,6.99904 -0.84903,9.86832 -5.7e-4,3.00905 0.28486,5.11783 0.94443,6.97627 1.6769,4.72493 2.45416,7.59389 2.45152,9.04883 -0.002,1.25209 -0.69098,2.24877 -1.66445,2.40872 -1.26893,0.20851 -3.42815,-0.7666 -4.84612,-2.18852 -2.53654,-2.54361 -3.71366,-6.58887 -4.10791,-14.11706 -0.0805,-1.53765 -0.20691,-3.29014 -0.28084,-3.89441 -0.14525,-1.18709 -0.63144,-2.51088 -0.92218,-2.51088 -0.4732,0 -1.42377,1.39856 -3.58026,5.26755 -5.68334,10.19655 -11.56423,18.11162 -15.30922,20.60462 -1.33606,0.8894 -2.56093,1.17992 -3.75594,0.89086 z"
           id="path100"
           inkscape:connector-curvature="0"
           transform="matrix(0.75000002,0,0.00291365,-0.75000002,-0.55060034,283.46001)" /><path
           style="fill:#ffffff;stroke:none;stroke-width:0.14155118"
           d="m 230.37643,291.80724 c -0.19213,-0.0711 -0.66781,-0.11769 -1.05707,-0.10354 -0.38927,0.0142 -0.81954,-0.0208 -0.95616,-0.0776 -0.13661,-0.0568 -0.47103,-0.0774 -0.74314,-0.0456 -0.27211,0.0318 -0.49474,4.2e-4 -0.49474,-0.0696 0,-0.0701 -0.28665,-0.10459 -0.63698,-0.0767 -0.35034,0.0279 -0.63699,-0.005 -0.63699,-0.072 0,-0.0675 -0.22294,-0.0966 -0.49542,-0.0648 -0.27249,0.0318 -0.49543,0.0209 -0.49543,-0.0241 0,-0.0451 -0.65291,-0.19258 -1.4509,-0.32778 -7.47123,-1.26574 -13.0745,-4.2253 -16.32113,-8.62058 -0.78066,-1.05686 -1.92932,-3.3187 -2.34009,-4.60789 -0.17984,-0.56444 -0.37218,-1.02625 -0.42742,-1.02625 -0.0552,0 -0.0671,-0.1274 -0.0264,-0.2831 0.043,-0.16455 0.004,-0.28311 -0.0924,-0.28311 -0.0915,0 -0.12999,-0.0589 -0.0855,-0.13097 0.0445,-0.072 -0.0236,-0.72494 -0.15137,-1.4509 -0.32475,-1.84506 -0.32153,-6.79413 0.006,-9.09816 0.31325,-2.20415 1.03915,-5.0119 1.77673,-6.87231 1.14987,-2.90032 2.09839,-4.38684 7.33033,-11.48809 1.1276,-1.53047 2.05086,-2.83628 2.05169,-2.9018 8.5e-4,-0.0655 0.12141,-0.20309 0.26795,-0.30573 0.14655,-0.10265 0.22977,-0.24597 0.18495,-0.31849 -0.0448,-0.0725 -0.0234,-0.13187 0.0476,-0.13187 0.071,0 0.42563,-0.44589 0.78801,-0.99086 0.36238,-0.54497 0.62197,-0.99086 0.57686,-0.99086 -0.0451,0 0.0295,-0.11147 0.16588,-0.24771 0.33535,-0.33511 1.14568,-2.11334 1.31297,-2.88126 0.1758,-0.80695 0.16108,-2.78671 -0.0241,-3.24083 -0.0794,-0.19463 -0.16802,-0.47851 -0.19701,-0.63084 -0.029,-0.15232 -0.12025,-0.31869 -0.20278,-0.3697 -0.0825,-0.051 -0.13804,-0.13613 -0.12332,-0.18915 0.0425,-0.15303 -0.30938,-0.93358 -0.42081,-0.93358 -0.0554,0 -0.10078,-0.0839 -0.10078,-0.18647 0,-0.10256 -0.33645,-0.7833 -0.74766,-1.51276 -1.20817,-2.14321 -1.47376,-2.95619 -1.47959,-4.52902 -0.004,-1.07569 0.0594,-1.50637 0.31691,-2.15261 1.04679,-2.62712 4.06354,-5.77469 9.2592,-9.66074 0.91478,-0.68419 1.66323,-1.30365 1.66323,-1.37658 0,-0.0729 0.0538,-0.0993 0.11959,-0.0587 0.0658,0.0406 0.3507,-0.13778 0.63317,-0.39652 0.28247,-0.25873 0.53465,-0.44935 0.56041,-0.4236 0.0258,0.0257 0.35699,-0.23794 0.73608,-0.58599 0.37909,-0.34804 0.73626,-0.63281 0.79371,-0.63281 0.0574,0 0.27961,-0.20702 0.4937,-0.46004 0.21409,-0.25302 0.43179,-0.44775 0.48378,-0.43273 0.052,0.015 0.62954,-0.51049 1.28344,-1.1678 0.65389,-0.65731 1.13394,-1.19511 1.06677,-1.19511 -0.0672,0 0.0491,-0.13465 0.25829,-0.29923 0.20924,-0.16459 0.35191,-0.32776 0.31705,-0.36262 -0.0348,-0.0349 0.088,-0.2267 0.273,-0.42632 0.185,-0.19963 0.30195,-0.41864 0.25989,-0.4867 -0.0421,-0.0681 -0.0168,-0.12374 0.0563,-0.12374 0.13472,0 0.50178,-0.75687 0.45275,-0.93357 -0.0147,-0.053 0.0457,-0.14116 0.13415,-0.19585 0.0885,-0.0547 0.18105,-0.25291 0.2057,-0.44048 0.0246,-0.18757 0.0928,-0.45481 0.1514,-0.59386 0.15251,-0.36173 0.005,-1.8458 -0.1902,-1.91079 -0.0901,-0.03 -0.12782,-0.11287 -0.0838,-0.18408 0.044,-0.0712 0.009,-0.12946 -0.0782,-0.12946 -0.087,0 -0.12345,-0.0563 -0.0809,-0.12516 0.10497,-0.16984 -1.16446,-1.32473 -1.33814,-1.21739 -0.0759,0.0469 -0.13802,0.007 -0.13802,-0.0882 0,-0.0954 -0.0394,-0.13406 -0.0876,-0.0859 -0.0482,0.0482 -0.18381,-0.009 -0.30136,-0.1261 -0.11755,-0.11755 -0.30106,-0.18021 -0.4078,-0.13925 -0.10674,0.041 -0.19408,0.0173 -0.19408,-0.0526 0,-0.26291 -1.5504,-0.42154 -3.53878,-0.36208 -1.12887,0.0338 -2.25951,0.0621 -2.51253,0.063 -0.25302,8.6e-4 -0.46054,0.0513 -0.46115,0.11216 -5.6e-4,0.0608 -0.33385,0.12301 -0.74053,0.13816 -0.40669,0.0152 -0.75808,0.0835 -0.78088,0.15192 -0.0228,0.0684 -0.23099,0.0965 -0.46265,0.0625 -0.23232,-0.0341 -0.4212,0.003 -0.4212,0.0825 0,0.0794 -0.12021,0.11293 -0.26713,0.0745 -0.14692,-0.0384 -0.3082,-0.003 -0.35841,0.0779 -0.0502,0.0812 -0.1856,0.11151 -0.30088,0.0673 -0.11528,-0.0442 -0.29427,-0.0102 -0.39775,0.0757 -0.10349,0.0859 -0.22733,0.11699 -0.2752,0.0691 -0.0479,-0.0479 -0.20125,-0.04 -0.34085,0.0176 -0.1396,0.0575 -0.47149,0.12703 -0.73753,0.1544 -0.26604,0.0274 -0.54452,0.11057 -0.61884,0.18489 -0.0743,0.0743 -0.21648,0.10392 -0.3159,0.0658 -0.0994,-0.0382 -0.21911,-0.007 -0.26599,0.0685 -0.0469,0.0759 -0.21257,0.10461 -0.3682,0.0639 -0.15563,-0.0407 -0.28296,-0.009 -0.28296,0.0708 0,0.0796 -0.12739,0.11149 -0.2831,0.0708 -0.16455,-0.043 -0.2831,-0.004 -0.2831,0.0924 0,0.0915 -0.0637,0.12705 -0.14155,0.0789 -0.0779,-0.0481 -0.2183,-0.0401 -0.31209,0.0179 -0.0938,0.058 -0.34079,0.12404 -0.54886,0.14681 -0.20808,0.0228 -0.5613,0.11505 -0.78494,0.20505 -0.22363,0.09 -0.59447,0.18778 -0.82408,0.21731 -0.22961,0.0295 -0.45255,0.10061 -0.49543,0.15796 -0.0429,0.0573 -0.14165,0.10758 -0.21951,0.11164 -0.4058,0.0211 -1.20318,0.25079 -1.20318,0.34653 0,0.0605 -0.0796,0.10401 -0.17694,0.0966 -0.34255,-0.0261 -1.23857,0.21942 -1.23857,0.33933 0,0.0668 -0.0956,0.0847 -0.21233,0.0399 -0.11678,-0.0448 -0.21233,-0.007 -0.21233,0.0836 0,0.0908 -0.0624,0.1265 -0.13864,0.0794 -0.15228,-0.0941 -1.27687,0.20454 -1.27687,0.3391 0,0.0461 -0.14332,0.0916 -0.31849,0.10128 -0.17517,0.01 -1.08287,0.22282 -2.0171,0.47373 -2.17527,0.58422 -4.41156,0.66159 -5.44972,0.18854 -1.98728,-0.90552 -2.23684,-2.78374 -0.57627,-4.33702 1.11468,-1.04265 3.65571,-2.1838 7.1584,-3.21476 0.85638,-0.25206 1.57842,-0.5133 1.60454,-0.58053 0.0261,-0.0672 0.10305,-0.0879 0.17097,-0.0459 0.0679,0.042 1.03388,-0.17286 2.14657,-0.47742 1.11268,-0.30456 2.38933,-0.63529 2.83699,-0.73495 0.44765,-0.0997 0.81392,-0.23853 0.81392,-0.30858 0,-0.0701 0.063,-0.0884 0.14004,-0.0408 0.16274,0.10059 1.84118,-0.20544 1.84269,-0.33597 5.6e-4,-0.0483 0.33497,-0.10417 0.74314,-0.12424 0.40817,-0.0201 0.75961,-0.0884 0.78097,-0.15192 0.0214,-0.0635 0.22838,-0.0876 0.46004,-0.0536 0.23166,0.034 0.4212,0.004 0.4212,-0.0674 0,-0.0711 0.22295,-0.10317 0.49543,-0.0714 0.27249,0.0318 0.49543,-4e-5 0.49543,-0.0708 0,-0.0707 0.22294,-0.10259 0.49543,-0.0708 0.31653,0.0369 0.49543,-0.002 0.49543,-0.10755 0,-0.091 0.0611,-0.12761 0.13586,-0.0814 0.17403,0.10756 3.12881,-0.0799 3.05792,-0.19399 -0.0819,-0.13183 3.80807,-0.0301 5.12645,0.134 0.64455,0.0803 1.22832,0.11106 1.29726,0.0684 0.069,-0.0426 0.14673,-0.0156 0.17284,0.0601 0.0261,0.0757 0.27042,0.15569 0.54291,0.17782 0.27248,0.0221 0.52727,0.0753 0.5662,0.11827 0.0389,0.0429 0.38927,0.19469 0.77853,0.33725 3.2599,1.1939 5.56252,3.26991 6.29046,5.67141 0.0944,0.31142 0.20477,0.66175 0.24528,0.77853 0.0405,0.11678 0.0638,0.83773 0.0518,1.60211 -0.0253,1.60715 -0.33745,2.98163 -1.05101,4.62823 -1.03627,2.39129 -2.2031,3.7318 -7.62438,8.75935 -1.61545,1.49813 -2.93719,2.7869 -2.93719,2.86395 0,0.077 -0.0522,0.10783 -0.11593,0.0684 -0.0638,-0.0394 -0.84302,0.65752 -1.73169,1.54871 -0.88867,0.8912 -1.56044,1.62036 -1.49282,1.62036 0.0676,0 -0.0482,0.13466 -0.25748,0.29924 -0.20923,0.16458 -0.3519,0.32776 -0.31704,0.36261 0.0349,0.0349 -0.088,0.22671 -0.273,0.42633 -0.185,0.19962 -0.30195,0.41863 -0.25989,0.48669 0.0421,0.0681 0.0177,0.12375 -0.0541,0.12375 -0.13843,0 -0.90184,1.59695 -0.8579,1.79462 0.0142,0.064 -0.0249,0.23284 -0.0868,0.37527 -0.19576,0.44978 0.017,2.41641 0.34048,3.14778 0.37439,0.84636 0.97553,1.65093 1.15202,1.54186 0.0728,-0.045 0.13232,-0.0106 0.13232,0.0765 0,0.0871 0.0637,0.1189 0.14155,0.0708 0.0779,-0.0481 0.14155,-0.023 0.14155,0.0558 0,0.19927 1.60097,0.0956 1.66886,-0.1081 0.0297,-0.089 0.1122,-0.12583 0.1834,-0.0818 0.0712,0.044 0.12946,0.009 0.12946,-0.0782 0,-0.087 0.0637,-0.11889 0.14155,-0.0708 0.0779,0.0481 0.14155,0.02 0.14155,-0.0624 0,-0.0824 0.0478,-0.13401 0.10617,-0.11456 0.17431,0.058 3.99882,-2.18128 3.99882,-2.34138 0,-0.0811 0.0397,-0.10779 0.0883,-0.0592 0.12652,0.12651 1.18566,-0.43965 1.18566,-0.63379 0,-0.0892 0.0413,-0.12102 0.0917,-0.0706 0.10876,0.10876 1.18228,-0.46943 1.18228,-0.63677 0,-0.0635 0.0478,-0.10794 0.10616,-0.0987 0.24648,0.0389 0.42244,-0.0315 0.68107,-0.27241 0.15092,-0.14061 0.32643,-0.26019 0.39001,-0.26575 0.21998,-0.0192 1.51223,-0.77066 1.51223,-0.87936 0,-0.06 0.082,-0.10912 0.18225,-0.10912 0.23498,0 1.51637,-0.749 1.51637,-0.88635 0,-0.0575 0.0825,-0.10451 0.18325,-0.10451 0.2635,0 2.22312,-1.18614 2.22312,-1.34563 0,-0.0736 0.0614,-0.0958 0.13639,-0.0495 0.075,0.0464 0.25549,-0.0295 0.40106,-0.16859 0.14557,-0.13908 0.33401,-0.26714 0.41876,-0.28458 0.0848,-0.0174 0.74827,-0.39333 1.47449,-0.83532 2.18205,-1.32804 2.68872,-1.51906 4.25774,-1.60515 0.75914,-0.0417 1.3802,-0.0342 1.38012,0.0166 -8e-5,0.0508 0.19719,0.16111 0.43838,0.24519 0.61096,0.21298 2.14318,1.32929 2.59053,1.88735 0.20484,0.25554 0.44397,0.55097 0.53141,0.65651 0.20125,0.24293 0.18716,0.25234 -1.86185,1.24332 -0.89531,0.433 -1.6492,0.84497 -1.67532,0.91549 -0.0261,0.0705 -0.10158,0.0948 -0.1677,0.0539 -0.15075,-0.0932 -1.41266,0.51008 -1.41266,0.67531 0,0.0669 -0.0595,0.0849 -0.13232,0.0399 -0.15925,-0.0984 -1.42474,0.49476 -1.42474,0.66783 0,0.0669 -0.0615,0.0837 -0.1367,0.0372 -0.12511,-0.0773 -1.25499,0.41398 -1.42036,0.61761 -0.0389,0.0479 -0.16633,0.10463 -0.28311,0.12601 -0.35875,0.0657 -1.27396,0.49384 -1.27396,0.59602 0,0.0531 -0.0935,0.0965 -0.20768,0.0965 -0.31007,0 -1.34938,0.49544 -1.34938,0.64324 0,0.0706 -0.054,0.095 -0.11999,0.0542 -0.066,-0.0408 -0.8463,0.27464 -1.734,0.70095 -2.61063,1.25373 -3.1003,1.50882 -3.1003,1.61508 0,0.0553 -0.0796,0.10204 -0.17694,0.1038 -0.26066,0.005 -1.23857,0.61588 -1.23857,0.77408 0,0.0748 -0.0642,0.0963 -0.14256,0.0478 -0.0784,-0.0485 -0.18062,0.0111 -0.22715,0.13238 -0.0465,0.12127 -0.13955,0.18653 -0.2067,0.14503 -0.0671,-0.0415 -0.20319,0.0544 -0.30232,0.21314 -0.0991,0.15873 -0.2337,0.2886 -0.29906,0.2886 -0.0653,0 -0.50101,0.38218 -0.96813,0.8493 -0.46712,0.46712 -0.80019,0.84931 -0.74015,0.84931 0.06,0 0.005,0.0796 -0.12245,0.17694 -0.12738,0.0973 -0.25103,0.27097 -0.27477,0.3859 -0.0237,0.11492 -0.12645,0.2983 -0.22825,0.40751 -0.10179,0.10921 -0.15235,0.28386 -0.11234,0.3881 0.04,0.10425 0.0173,0.22382 -0.0505,0.2657 -0.0678,0.0419 -0.10764,0.64225 -0.0886,1.33414 0.0286,1.0401 0.10187,1.39545 0.42292,2.05165 0.21357,0.43651 0.45108,0.79366 0.5278,0.79366 0.0767,0 0.10413,0.0572 0.0609,0.12716 -0.0432,0.0699 0.1089,0.32787 0.33806,0.57318 0.22915,0.24531 0.42288,0.49066 0.4305,0.54521 0.008,0.0546 0.80474,0.99096 1.77137,2.0809 5.47597,6.17457 11.81795,15.43413 14.93031,21.79889 1.02882,2.10392 1.94647,4.35332 2.56971,6.29902 0.26184,0.81746 0.51709,1.50527 0.56722,1.52847 0.0501,0.0232 0.0586,0.16651 0.0189,0.31849 -0.0397,0.15197 -0.017,0.27664 0.0504,0.27704 0.0675,4.3e-4 0.13831,0.27103 0.15743,0.60139 0.0191,0.33036 0.0875,0.61822 0.15192,0.6397 0.0644,0.0215 0.0893,0.22859 0.0553,0.46025 -0.034,0.23166 -0.005,0.4212 0.0642,0.4212 0.0693,0 0.10167,0.25479 0.072,0.5662 -0.0297,0.31142 4.3e-4,0.56614 0.067,0.56605 0.0666,-9e-5 0.0806,1.06686 0.0312,2.37098 -0.0494,1.30413 -0.0616,2.41892 -0.027,2.47731 0.0346,0.0584 0.002,0.10616 -0.0713,0.10616 -0.0738,0 -0.17853,0.23887 -0.23277,0.53082 -0.43151,2.3226 -2.28259,4.99821 -4.5256,6.54144 -1.7213,1.18429 -4.41755,2.21862 -7.08526,2.71804 -0.85639,0.16033 -1.65261,0.32334 -1.76939,0.36224 -0.11678,0.0389 -2.05957,0.0965 -4.31732,0.12802 -2.25774,0.0315 -4.36183,0.0787 -4.67575,0.1049 -0.31392,0.0262 -0.72796,-0.0106 -0.92008,-0.0817 z m 5.92644,-3.92799 c 0.25968,-0.002 0.54311,-0.0481 0.62983,-0.10172 0.0867,-0.0536 0.28829,-0.11231 0.44793,-0.13048 0.8685,-0.0988 1.95671,-0.347 2.13041,-0.48587 0.0779,-0.0622 0.19039,-0.11376 0.25008,-0.11448 0.34613,-0.004 0.95311,-0.20612 0.95311,-0.31711 0,-0.0717 0.0511,-0.11438 0.11355,-0.0949 0.17644,0.055 1.58506,-0.63437 1.58506,-0.77569 0,-0.0691 0.0557,-0.0913 0.12375,-0.0492 0.0681,0.0421 0.28707,-0.0749 0.48669,-0.2599 0.19962,-0.185 0.38949,-0.30983 0.42193,-0.27739 0.0324,0.0324 0.51652,-0.36464 1.07574,-0.88239 0.55921,-0.51775 0.98925,-0.96887 0.95562,-1.00249 -0.0336,-0.0336 0.0866,-0.20882 0.26707,-0.38932 0.3655,-0.36551 1.26448,-2.05979 1.09472,-2.06319 -0.0595,-10e-4 -0.038,-0.049 0.0479,-0.10617 0.20725,-0.1381 0.66599,-1.5469 0.5597,-1.71887 -0.0459,-0.0742 -0.0149,-0.17728 0.0688,-0.22903 0.0837,-0.0517 0.13898,-0.23131 0.12281,-0.39904 -0.0162,-0.16774 0.0164,-0.41044 0.0724,-0.53935 0.10972,-0.25249 0.0347,-2.56317 -0.10954,-3.37518 -0.14956,-0.84183 -0.19615,-1.06163 -0.225,-1.06163 -0.0153,0 -0.0519,-0.18408 -0.0813,-0.40907 -0.0294,-0.22499 -0.0976,-0.51163 -0.15145,-0.63698 -0.0539,-0.12535 -0.11132,-0.32346 -0.12762,-0.44024 -0.0678,-0.48568 -0.40917,-1.41551 -0.51966,-1.41551 -0.0655,0 -0.10701,-0.0478 -0.0922,-0.10616 0.0485,-0.19097 -0.1885,-1.02625 -0.29119,-1.02625 -0.0551,0 -0.11055,-0.13759 -0.12321,-0.30575 -0.0127,-0.16817 -0.10585,-0.35829 -0.20707,-0.42249 -0.10121,-0.0642 -0.13956,-0.11771 -0.0852,-0.1189 0.15279,-0.003 -0.17923,-0.85148 -0.33333,-0.85148 -0.0748,0 -0.10143,-0.056 -0.0591,-0.12451 0.10927,-0.1768 -2.29391,-4.97133 -2.49179,-4.97133 -0.09,0 -0.12382,-0.0397 -0.0753,-0.0883 0.12651,-0.12652 -0.43965,-1.18566 -0.6338,-1.18566 -0.0892,0 -0.12234,-0.0399 -0.0735,-0.0887 0.10767,-0.10767 -0.28531,-0.90214 -0.44624,-0.90214 -0.0629,0 -0.11432,-0.082 -0.11432,-0.18225 0,-0.25751 -0.75542,-1.51636 -0.90994,-1.51636 -0.0705,0 -0.11218,-0.0564 -0.0927,-0.12536 0.0442,-0.15663 -0.88256,-1.71481 -1.01993,-1.71481 -0.0554,0 -0.10068,-0.0816 -0.10068,-0.1813 0,-0.22132 -0.46504,-0.95111 -0.60607,-0.95111 -0.0559,0 -0.10169,-0.0816 -0.10169,-0.18128 0,-0.26013 -2.28859,-3.6406 -2.4647,-3.6406 -0.0809,0 -0.11533,-0.0514 -0.0765,-0.11427 0.0871,-0.14091 -2.41113,-3.41453 -2.68636,-3.52015 -0.10922,-0.0419 -0.19954,-0.14901 -0.20071,-0.23799 -0.002,-0.18509 -3.3073,-3.48825 -3.49003,-3.48825 -0.066,0 -0.2035,-0.1336 -0.30547,-0.29689 -0.10198,-0.16328 -0.21678,-0.26552 -0.25512,-0.22718 -0.0383,0.0383 -0.23303,-0.0817 -0.43265,-0.26666 -0.19962,-0.18501 -0.41863,-0.30196 -0.48669,-0.2599 -0.0681,0.0421 -0.12375,0.0103 -0.12375,-0.0705 0,-0.19568 -1.10449,-0.75294 -1.27881,-0.64521 -0.0752,0.0465 -0.1367,0.0102 -0.1367,-0.0806 0,-0.0908 -0.0956,-0.12838 -0.21232,-0.0836 -0.11678,0.0448 -0.21233,0.0205 -0.21233,-0.054 0,-0.15002 -0.19837,-0.17187 -1.58309,-0.17443 -0.52037,-9.9e-4 -1.0618,0.047 -1.20319,0.10649 -0.14139,0.0595 -0.4118,0.12852 -0.60091,0.15333 -0.49697,0.0652 -2.13916,0.90041 -2.22859,1.13347 -0.0418,0.10883 -0.13148,0.16355 -0.19938,0.12159 -0.28914,-0.1787 -3.94649,3.71645 -3.71083,3.9521 0.0491,0.0491 0.0195,0.0893 -0.0658,0.0893 -0.17639,0 -1.11403,1.39707 -1.05996,1.57932 0.0195,0.0656 -0.027,0.11929 -0.10329,0.11929 -0.13293,0 -0.78758,1.14479 -0.71947,1.25814 0.0182,0.0302 -0.0275,0.0939 -0.10148,0.14155 -0.23028,0.14826 -1.02752,1.66182 -0.92785,1.7615 0.052,0.052 0.0164,0.0945 -0.079,0.0945 -0.0954,0 -0.13413,0.0637 -0.086,0.14155 0.0481,0.0779 0.0163,0.14155 -0.0708,0.14155 -0.087,0 -0.11889,0.0637 -0.0708,0.14155 0.0481,0.0779 0.0163,0.14155 -0.0708,0.14155 -0.087,0 -0.11889,0.0637 -0.0708,0.14156 0.0481,0.0778 0.0163,0.14155 -0.0708,0.14155 -0.087,0 -0.11889,0.0637 -0.0708,0.14155 0.0481,0.0779 0.0274,0.14155 -0.046,0.14155 -0.13943,0 -0.82345,1.54903 -0.7657,1.734 0.0182,0.0584 -0.0343,0.10617 -0.11675,0.10617 -0.0824,0 -0.11054,0.0637 -0.0624,0.14155 0.0481,0.0779 0.034,0.14155 -0.0313,0.14155 -0.13075,0 -0.65826,1.2694 -0.61105,1.47046 0.0162,0.0692 -0.0428,0.17043 -0.13122,0.22506 -0.0884,0.0546 -0.17109,0.23693 -0.18376,0.40509 -0.0127,0.16817 -0.08,0.30576 -0.14961,0.30576 -0.0696,0 -0.0915,0.0914 -0.0486,0.20318 0.0429,0.11175 0.0278,0.22322 -0.0336,0.24771 -0.15136,0.0604 -1.01533,2.67349 -0.92974,2.81198 0.0375,0.0606 0.0101,0.13154 -0.0607,0.15765 -0.17231,0.0635 -0.90176,3.35502 -0.81611,3.68255 0.037,0.14167 0.007,0.25759 -0.0675,0.25759 -0.0741,0 -0.13806,0.27072 -0.14201,0.60159 -0.004,0.33088 -0.0367,1.38669 -0.0727,2.34625 -0.0404,1.0753 -0.0103,1.81128 0.0786,1.91831 0.0793,0.0955 0.10775,0.3127 0.0633,0.48266 -0.0444,0.16995 -0.0352,0.42143 0.0206,0.55884 0.0558,0.1374 0.12212,0.49805 0.14742,0.80145 0.0253,0.30339 0.0983,0.59003 0.16226,0.63698 0.0639,0.0469 0.13695,0.27565 0.16226,0.50822 0.0253,0.23258 0.089,0.45552 0.14155,0.49543 0.0525,0.0399 0.0966,0.13626 0.0978,0.21412 0.005,0.33411 0.38661,1.20318 0.52768,1.20318 0.0848,0 0.11308,0.0411 0.0629,0.0913 -0.11879,0.11879 0.82889,1.921 1.24785,2.37307 0.17799,0.19205 0.29225,0.38055 0.25391,0.41889 -0.0383,0.0383 0.0639,0.15313 0.22719,0.25511 0.16328,0.10197 0.29688,0.24346 0.29688,0.31442 0,0.16515 2.47324,2.63391 2.63869,2.63391 0.0683,0 0.20767,0.1336 0.30964,0.29689 0.10198,0.16329 0.21508,0.26721 0.25135,0.23095 0.0363,-0.0363 0.26127,0.11653 0.50001,0.33955 0.23874,0.22302 0.48463,0.37425 0.54641,0.33607 0.0618,-0.0382 0.1504,0.0298 0.19693,0.15106 0.0465,0.12127 0.14876,0.18084 0.22716,0.13239 0.0784,-0.0485 0.14255,-0.0269 0.14255,0.0478 0,0.15821 0.97792,0.76939 1.23858,0.77409 0.0973,0.002 0.17693,0.0539 0.17693,0.11583 0,0.1323 2.09478,1.16132 2.36411,1.16132 0.1011,0 0.18382,0.0429 0.18382,0.0953 0,0.0747 0.918,0.43993 1.27396,0.50679 0.0389,0.007 0.32086,0.12455 0.62651,0.26053 0.30566,0.13598 0.68785,0.26495 0.84931,0.2866 0.16146,0.0217 0.47757,0.11345 0.70246,0.20398 0.2249,0.0905 0.44198,0.13152 0.48241,0.0911 0.0404,-0.0404 0.16053,-0.001 0.26689,0.087 0.10636,0.0883 0.23376,0.12013 0.2831,0.0708 0.0494,-0.0494 0.16878,-0.0241 0.26541,0.0561 0.0966,0.0802 0.39552,0.16554 0.6642,0.18964 0.26867,0.0241 0.55406,0.0844 0.63418,0.13387 0.0801,0.0495 0.45592,0.11637 0.83511,0.14855 0.3792,0.0322 0.80198,0.1041 0.93952,0.1598 0.13754,0.0557 0.40978,0.0707 0.60497,0.0334 0.19519,-0.0373 0.39087,-0.01 0.43483,0.0615 0.044,0.0711 0.42436,0.1154 0.84532,0.0984 0.42097,-0.017 0.81268,0.0163 0.87048,0.0741 0.0578,0.0578 0.99761,0.071 2.08848,0.0293 1.09087,-0.0417 2.19587,-0.0777 2.45556,-0.08 z"
           id="path102"
           inkscape:connector-curvature="0"
           transform="matrix(0.75000002,0,0.00291365,-0.75000002,-0.55060034,283.46001)" /><path
           style="fill:#ffffff;stroke:none;stroke-width:0.14155118"
           d="m 190.67588,256.70929 c -0.93665,-0.51494 -1.82266,-1.80322 -2.639,-3.83719 -0.43652,-1.08763 -1.09671,-3.42382 -1.27833,-4.52359 -0.0871,-0.5274 -0.20169,-0.95891 -0.25465,-0.95891 -0.053,0 -0.0682,-0.19109 -0.034,-0.42465 0.0343,-0.23356 0.007,-0.42515 -0.0599,-0.42576 -0.0672,-5.7e-4 -0.13418,-0.3265 -0.14879,-0.72421 -0.0146,-0.3977 -0.0715,-0.82716 -0.12648,-0.95436 -0.0549,-0.1272 -0.0866,-0.40012 -0.0704,-0.60649 0.0162,-0.20638 -0.0355,-0.41544 -0.11505,-0.46458 -0.0795,-0.0491 -0.10869,-0.18285 -0.0648,-0.29714 0.0439,-0.11428 0.0329,-0.31926 -0.0244,-0.45551 -0.11872,-0.28242 -0.20659,-0.81066 -0.21076,-1.26694 -0.002,-0.17131 -0.0628,-0.34852 -0.13605,-0.3938 -0.0733,-0.0453 -0.097,-0.17664 -0.0528,-0.29192 0.0442,-0.11528 0.0102,-0.29427 -0.0757,-0.39776 -0.0859,-0.10349 -0.11699,-0.22732 -0.0691,-0.27519 0.0479,-0.0479 0.0391,-0.20125 -0.0194,-0.34086 -0.0585,-0.1396 -0.11872,-0.38121 -0.1337,-0.53692 -0.0622,-0.64607 -0.41525,-1.91094 -0.53344,-1.91094 -0.0701,0 -0.0929,-0.0557 -0.0508,-0.12388 0.1,-0.16172 -0.34251,-1.47325 -0.54246,-1.60795 -0.0849,-0.0572 -0.10991,-0.10497 -0.0556,-0.10617 0.15279,-0.003 -0.17923,-0.85147 -0.33333,-0.85147 -0.0748,0 -0.0999,-0.0586 -0.0556,-0.13014 0.0442,-0.0716 -0.0127,-0.22324 -0.12645,-0.33703 -0.11379,-0.11379 -0.16746,-0.24632 -0.11926,-0.29451 0.0482,-0.0482 0.01,-0.0876 -0.0859,-0.0876 -0.0954,0 -0.1401,-0.054 -0.0993,-0.12011 0.0408,-0.0661 -0.0471,-0.25038 -0.19545,-0.40959 -0.14832,-0.15921 -0.241,-0.31815 -0.20594,-0.35321 0.10226,-0.10226 -1.65188,-1.95615 -1.77746,-1.87854 -0.0626,0.0387 -0.14641,-0.0146 -0.18624,-0.11834 -0.103,-0.26842 -1.65499,-0.97534 -1.96393,-0.89455 -0.14198,0.0371 -0.25814,0.0174 -0.25814,-0.0439 0,-0.24105 -6.30617,0.0182 -6.79405,0.27926 -0.13546,0.0725 -0.28146,0.0966 -0.32445,0.0537 -0.10128,-0.10128 -1.68099,0.22199 -1.88303,0.38534 -0.085,0.0687 -0.19225,0.0873 -0.23829,0.0413 -0.0461,-0.046 -0.16489,-0.0336 -0.26409,0.0277 -0.0992,0.0613 -0.31733,0.12608 -0.48471,0.14392 -0.51477,0.0549 -2.46789,0.79254 -2.46789,0.93207 0,0.0724 -0.0525,0.0991 -0.11674,0.0594 -0.15667,-0.0968 -2.03083,0.86165 -2.25424,1.15287 -0.0973,0.12685 -0.17896,0.17069 -0.18144,0.0974 -0.002,-0.0733 -0.098,-0.01 -0.21233,0.14155 -0.1143,0.15112 -0.20782,0.22702 -0.20782,0.16867 0,-0.19852 -1.65098,1.16336 -2.38823,1.97003 -0.79482,0.86965 -1.53737,1.88946 -1.6042,2.20316 -0.023,0.10786 -0.0812,0.22796 -0.12938,0.26689 -0.17244,0.13932 -0.83504,1.5571 -0.7287,1.55923 0.0597,10e-4 0.0405,0.049 -0.0427,0.10616 -0.20483,0.14079 -0.63394,1.2533 -0.52531,1.36193 0.0477,0.0477 0.0235,0.0868 -0.0538,0.0868 -0.12859,0 -0.96817,2.14814 -0.96817,2.47715 0,0.0779 -0.0354,0.1734 -0.0788,0.21233 -0.0433,0.0389 -0.41522,1.05809 -0.82644,2.26481 -1.06941,3.13814 -1.93081,4.86056 -2.94698,5.89263 -2.30428,2.34034 -5.26095,2.72013 -6.21589,0.79846 -0.2067,-0.41594 -0.26561,-0.85355 -0.26718,-1.98451 -0.001,-0.79799 0.0541,-1.4509 0.12267,-1.4509 0.0686,0 0.0914,-0.12739 0.0507,-0.2831 -0.0407,-0.15571 -0.0272,-0.2831 0.03,-0.2831 0.13876,0 0.45847,-1.40572 0.35704,-1.56984 -0.0438,-0.0708 -0.005,-0.12878 0.0868,-0.12878 0.0967,0 0.13541,-0.11855 0.0924,-0.2831 -0.0407,-0.15571 -0.0295,-0.2831 0.0249,-0.2831 0.13934,0 0.4624,-1.26599 0.36377,-1.42556 -0.0447,-0.0723 -0.027,-0.13151 0.0393,-0.13151 0.15465,0 0.49297,-1.25147 0.38538,-1.42555 -0.0447,-0.0723 -0.0214,-0.13151 0.0518,-0.13151 0.15753,0 0.49156,-1.23345 0.38202,-1.41068 -0.0415,-0.0672 -0.01,-0.14418 0.071,-0.17104 0.0806,-0.0269 0.1606,-0.23932 0.17782,-0.47213 0.0172,-0.23281 0.0707,-0.45514 0.11877,-0.49407 0.15797,-0.12783 1.97375,-6.66584 1.88925,-6.80256 -0.0454,-0.0734 -0.0248,-0.13345 0.0456,-0.13345 0.15774,0 0.77786,-2.08569 0.67136,-2.25801 -0.0422,-0.0683 -0.004,-0.14837 0.0845,-0.17794 0.0887,-0.0296 0.16872,-0.2578 0.17782,-0.50719 0.009,-0.24939 0.0542,-0.45359 0.1003,-0.45376 0.12832,-4.3e-4 0.43539,-1.1214 0.34657,-1.26511 -0.043,-0.0696 -0.0123,-0.14853 0.0683,-0.17539 0.0806,-0.0269 0.16061,-0.23932 0.17782,-0.47213 0.0172,-0.23281 0.0692,-0.45514 0.1155,-0.49407 0.1504,-0.12645 0.70761,-2.12883 0.62817,-2.25737 -0.0424,-0.0686 -0.005,-0.14901 0.0841,-0.17858 0.0887,-0.0296 0.16873,-0.2578 0.17783,-0.50719 0.009,-0.24939 0.0542,-0.45359 0.1003,-0.45376 0.12832,-4.3e-4 0.43538,-1.1214 0.34657,-1.26511 -0.043,-0.0696 -0.006,-0.15074 0.0831,-0.18031 0.0887,-0.0296 0.16872,-0.2578 0.17782,-0.50719 0.009,-0.24939 0.0542,-0.45359 0.1003,-0.45376 0.13464,-5.7e-4 0.43318,-1.12497 0.3391,-1.2772 -0.0471,-0.0763 -0.0283,-0.13864 0.0418,-0.13864 0.16587,0 0.49452,-1.09615 0.38283,-1.27687 -0.0471,-0.0762 -0.0283,-0.13864 0.0418,-0.13864 0.15941,0 0.49663,-1.09275 0.39031,-1.26478 -0.043,-0.0696 -0.006,-0.15074 0.0831,-0.18031 0.0887,-0.0296 0.16872,-0.25781 0.17782,-0.5072 0.009,-0.24939 0.0542,-0.45358 0.10031,-0.45376 0.13463,-5.6e-4 0.43318,-1.12496 0.33909,-1.27719 -0.0471,-0.0763 -0.0283,-0.13864 0.0418,-0.13864 0.16587,0 0.49453,-1.09616 0.38284,-1.27687 -0.0471,-0.0763 -0.0283,-0.13864 0.0418,-0.13864 0.16587,0 0.49453,-1.09616 0.38284,-1.27688 -0.0471,-0.0763 -0.0283,-0.13864 0.0418,-0.13864 0.15941,0 0.49663,-1.09275 0.39031,-1.26478 -0.043,-0.0696 -0.0216,-0.14791 0.0476,-0.17402 0.17304,-0.0653 1.74472,-5.33637 1.64112,-5.50399 -0.0458,-0.0741 -0.0247,-0.13476 0.0469,-0.13476 0.15682,0 0.61648,-1.54819 0.51054,-1.7196 -0.041,-0.0663 -0.0171,-0.12057 0.053,-0.12057 0.16587,0 0.49453,-1.09616 0.38284,-1.27687 -0.0471,-0.0762 -0.0114,-0.13864 0.0794,-0.13864 0.0908,0 0.12839,-0.0955 0.0836,-0.21233 -0.0448,-0.11678 -0.0275,-0.21233 0.0384,-0.21233 0.14443,0 0.45068,-1.138 0.35006,-1.3008 -0.039,-0.0631 -0.0123,-0.11471 0.0593,-0.11471 0.15683,0 0.61648,-1.54818 0.51054,-1.71959 -0.041,-0.0663 -0.0171,-0.12057 0.053,-0.12057 0.16587,0 0.49453,-1.09616 0.38284,-1.27688 -0.0471,-0.0763 -0.0114,-0.13863 0.0794,-0.13863 0.0908,0 0.12838,-0.0956 0.0836,-0.21233 -0.0448,-0.11678 -0.0299,-0.21233 0.0332,-0.21233 0.15668,0 0.47671,-1.10428 0.37005,-1.27687 -0.0471,-0.0763 -0.0308,-0.13864 0.0363,-0.13864 0.0671,0 0.26698,-0.46181 0.44411,-1.02625 2.16095,-6.88576 2.50876,-7.69871 3.80162,-8.88555 1.08344,-0.99459 1.74701,-1.17525 3.973,-1.08169 2.04087,0.0858 2.47513,0.12835 2.57538,0.25242 0.0389,0.0482 0.40507,0.25621 0.81365,0.46229 0.98005,0.49432 2.57032,2.0102 3.36868,3.2111 0.35239,0.53007 0.90259,1.525 1.22267,2.21095 0.32007,0.68594 0.62032,1.27902 0.66722,1.31795 0.0469,0.0389 0.0923,0.1715 0.10094,0.29461 0.0267,0.38112 1.5063,4.72781 1.62539,4.77499 0.0618,0.0245 0.0773,0.13597 0.0344,0.24772 -0.0429,0.11174 -0.009,0.20318 0.0743,0.20318 0.0837,0 0.11559,0.0955 0.0708,0.21232 -0.0448,0.11678 -0.007,0.21233 0.0836,0.21233 0.0908,0 0.12574,0.0636 0.0777,0.14135 -0.10442,0.16896 0.50331,2.12347 0.66027,2.12347 0.0601,0 0.0726,0.0956 0.0278,0.21233 -0.0448,0.11678 -0.007,0.21232 0.0836,0.21232 0.0908,0 0.12574,0.0636 0.0777,0.14135 -0.10961,0.17735 0.50725,2.12347 0.67307,2.12347 0.0671,0 0.0835,0.0624 0.0364,0.13864 -0.11169,0.18072 0.21696,1.27687 0.38283,1.27687 0.0701,0 0.0889,0.0625 0.0416,0.13898 -0.0884,0.143 0.45423,2.14077 0.61584,2.26739 0.0497,0.0389 0.10377,0.25658 0.12021,0.48368 0.0164,0.22709 0.0801,0.45004 0.14155,0.49543 0.0614,0.0454 0.12512,0.26833 0.14155,0.49543 0.0164,0.22709 0.0801,0.45003 0.14155,0.49543 0.0614,0.0454 0.12576,0.27301 0.14298,0.50582 0.0172,0.23281 0.0972,0.44527 0.17782,0.47213 0.0806,0.0269 0.11645,0.0975 0.0797,0.15692 -0.0754,0.12193 0.47526,2.1646 0.613,2.27411 0.049,0.0389 0.10973,0.26106 0.13503,0.49364 0.0253,0.23258 0.089,0.45552 0.14155,0.49543 0.0525,0.0399 0.11592,0.26366 0.14082,0.49722 0.0249,0.23356 0.10492,0.44601 0.17782,0.47213 0.0729,0.0261 0.0998,0.10039 0.0599,0.16506 -0.04,0.0647 0.002,0.2981 0.0926,0.51872 0.0909,0.22064 0.15225,0.48077 0.13636,0.57809 -0.0159,0.0973 0.0413,0.17694 0.1272,0.17694 0.0859,0 0.12005,0.0583 0.076,0.12967 -0.0441,0.0713 -0.006,0.31019 0.0851,0.53082 0.0909,0.22063 0.15226,0.48076 0.13636,0.57808 -0.0159,0.0973 0.0413,0.17694 0.1272,0.17694 0.0859,0 0.12005,0.0584 0.076,0.12967 -0.0441,0.0713 -0.006,0.31019 0.0851,0.53082 0.0909,0.22063 0.15226,0.48077 0.13636,0.57808 -0.0159,0.0973 0.0305,0.17694 0.10313,0.17694 0.0726,0 0.12318,0.0796 0.11236,0.17694 -0.0331,0.29813 0.51025,2.08788 0.63389,2.08788 0.0639,0 0.0794,0.0955 0.0346,0.21233 -0.0448,0.11678 -0.007,0.21232 0.0836,0.21232 0.0908,0 0.13095,0.0552 0.0893,0.12261 -0.0908,0.14696 0.62167,2.33533 0.78109,2.39907 0.0613,0.0245 0.0763,0.13597 0.0334,0.24772 -0.0429,0.11175 -0.007,0.20318 0.0787,0.20318 0.0862,0 0.14915,0.0478 0.13993,0.10616 -0.009,0.0584 -0.004,0.13801 0.0108,0.17694 0.0152,0.0389 0.0467,0.16632 0.07,0.2831 0.0233,0.11678 0.20955,0.74113 0.41383,1.38743 0.48394,1.53112 0.49186,2.76584 0.0247,3.84888 -0.18444,0.42759 -0.30552,0.82571 -0.26906,0.8847 0.0365,0.059 0.009,0.10725 -0.0612,0.10725 -0.19266,0 -0.45541,1.0099 -0.45541,1.75042 0,0.36077 0.0617,0.65595 0.13711,0.65595 0.0754,0 0.10466,0.0846 0.065,0.18791 -0.0397,0.10336 0.005,0.37407 0.0987,0.60159 0.094,0.22753 0.18416,0.46145 0.20041,0.51984 0.0163,0.0584 0.0455,0.13802 0.065,0.17694 0.0195,0.0389 0.0513,0.13448 0.0708,0.21233 0.0195,0.0779 0.0513,0.1734 0.0708,0.21233 0.0195,0.0389 0.0513,0.13447 0.0708,0.21232 0.0195,0.0779 0.0481,0.15748 0.0636,0.17694 0.0155,0.0195 0.0569,0.19187 0.0921,0.38312 0.0351,0.19126 0.10999,0.38235 0.16642,0.42466 0.0564,0.0423 0.12131,0.17246 0.14418,0.28924 0.10685,0.5454 1.93074,5.09585 2.0425,5.09585 0.0697,0 0.0921,0.0559 0.0498,0.12428 -0.0422,0.0683 0.17758,0.8374 0.48849,1.709 1.65059,4.62711 2.1461,6.51094 2.14272,8.14608 -0.004,1.94228 -0.84861,3.93776 -1.99045,4.70281 -0.52756,0.35347 -1.56688,0.43292 -2.06695,0.15801 z m -22.04659,-29.70824 c 0.33087,0.009 0.60159,-0.0387 0.60159,-0.10618 0,-0.0675 0.19109,-0.0947 0.42465,-0.0604 0.23356,0.0343 0.42466,2.8e-4 0.42466,-0.0757 0,-0.0759 0.15924,-0.10755 0.35387,-0.0703 0.19464,0.0372 0.35388,0.002 0.35388,-0.0772 0,-0.0796 0.1274,-0.11148 0.2831,-0.0708 0.15571,0.0407 0.28311,0.009 0.28311,-0.0708 0,-0.0796 0.12739,-0.1115 0.2831,-0.0708 0.15571,0.0407 0.2831,0.005 0.2831,-0.0796 0,-0.0845 0.0955,-0.11695 0.21233,-0.0721 0.11678,0.0448 0.21237,0.0269 0.21243,-0.0398 5e-5,-0.0667 0.16762,-0.13101 0.37236,-0.14288 0.20475,-0.0119 0.41173,-0.0755 0.45995,-0.14155 0.0482,-0.066 0.21506,-0.14227 0.37077,-0.16952 0.15571,-0.0272 0.32207,-0.11231 0.3697,-0.18903 0.0476,-0.0767 0.12999,-0.12745 0.18302,-0.11274 0.15931,0.0442 0.93357,-0.31163 0.93357,-0.42905 0,-0.06 0.14828,-0.14625 0.32952,-0.19174 0.18124,-0.0455 0.50301,-0.24349 0.71505,-0.44 0.21204,-0.19651 0.43268,-0.35729 0.49031,-0.35729 0.12878,0 1.29614,-1.17752 1.29614,-1.30742 0,-0.0514 0.15805,-0.26405 0.35123,-0.47249 0.19317,-0.20844 0.31681,-0.43466 0.27475,-0.50272 -0.0421,-0.0681 -0.005,-0.12374 0.0818,-0.12374 0.087,0 0.11889,-0.0637 0.0708,-0.14155 -0.0481,-0.0779 -0.0163,-0.14155 0.0708,-0.14155 0.087,0 0.12225,-0.0583 0.0782,-0.12947 -0.044,-0.0712 -0.0218,-0.15082 0.0495,-0.17694 0.0712,-0.0261 0.15123,-0.17487 0.17782,-0.33058 0.0266,-0.1557 0.0982,-0.31998 0.15912,-0.36507 0.0609,-0.0451 0.13687,-0.33172 0.16878,-0.63698 0.0319,-0.30525 0.0702,-0.55501 0.0851,-0.55501 0.0149,0 0.0442,-0.74845 0.0652,-1.66322 0.021,-0.91478 -0.003,-1.66362 -0.0543,-1.66409 -0.0508,-4.3e-4 -0.10012,-0.2835 -0.10955,-0.62893 -0.009,-0.34543 -0.0646,-0.74316 -0.12254,-0.88383 -0.058,-0.14067 -0.12739,-0.46921 -0.1543,-0.73009 -0.0269,-0.26087 -0.11453,-0.55337 -0.19472,-0.65 -0.0802,-0.0966 -0.10544,-0.21606 -0.0561,-0.26541 0.0494,-0.0493 0.0175,-0.17674 -0.0708,-0.2831 -0.0883,-0.10636 -0.12742,-0.22646 -0.087,-0.26689 0.0404,-0.0404 -0.002,-0.25751 -0.0941,-0.48241 -0.0922,-0.22489 -0.17458,-0.47259 -0.18313,-0.55045 -0.0542,-0.49342 -0.41391,-1.62783 -0.51619,-1.62783 -0.0676,0 -0.0863,-0.0956 -0.0415,-0.21233 0.0448,-0.11678 0.013,-0.21233 -0.0708,-0.21233 -0.0837,0 -0.11559,-0.0956 -0.0708,-0.21233 0.0448,-0.11677 0.007,-0.21232 -0.0836,-0.21232 -0.0908,0 -0.12602,-0.0632 -0.0783,-0.14035 0.11033,-0.17852 -0.36301,-1.69982 -0.52889,-1.69982 -0.0682,0 -0.0855,-0.0624 -0.0384,-0.13864 0.11169,-0.18071 -0.21697,-1.27687 -0.38284,-1.27687 -0.0701,0 -0.0932,-0.0555 -0.0512,-0.12342 0.0748,-0.12104 -0.63801,-2.38853 -0.8616,-2.74077 -0.0625,-0.0985 -0.11741,-0.21101 -0.12192,-0.24994 -0.0405,-0.34917 -0.40438,-1.1324 -0.52613,-1.1324 -0.0848,0 -0.11308,-0.0411 -0.0629,-0.0913 0.11904,-0.11903 -0.8371,-1.93712 -1.18371,-2.25079 -0.14706,-0.13309 -0.52108,-0.27129 -0.83117,-0.3071 -0.52463,-0.0606 -0.61278,-0.0153 -1.2694,0.65173 -0.6119,0.62162 -1.45442,2.04865 -1.59718,2.70522 -0.0254,0.11678 -0.0876,0.24418 -0.13818,0.2831 -0.0506,0.0389 -0.11431,0.19818 -0.14156,0.35388 -0.0272,0.15571 -0.1005,0.32068 -0.16279,0.36662 -0.0623,0.0459 -0.12361,0.2211 -0.13628,0.38926 -0.0127,0.16817 -0.0663,0.30576 -0.11912,0.30576 -0.0914,0 -0.31444,0.61951 -0.3312,0.92008 -0.004,0.0779 -0.05,0.17363 -0.10139,0.21285 -0.16395,0.12503 -0.67753,1.59573 -0.60067,1.72009 0.0406,0.0658 0.0115,0.11955 -0.0646,0.11955 -0.12713,0 -0.64979,1.2997 -0.65462,1.62784 -0.001,0.0779 -0.0352,0.1734 -0.0757,0.21233 -0.17262,0.16587 -0.41869,0.88131 -0.34444,1.00146 0.0445,0.072 0.0204,0.13095 -0.0536,0.13095 -0.12185,0 -0.35004,0.56795 -0.36968,0.92008 -0.004,0.0778 -0.0498,0.17352 -0.10097,0.21259 -0.0512,0.0391 -0.4113,0.86715 -0.80024,1.84016 -0.38894,0.97302 -0.97189,2.37426 -1.29544,3.11387 -0.32355,0.7396 -0.59806,1.4562 -0.61001,1.59245 -0.0119,0.13624 -0.0641,0.24771 -0.11598,0.24771 -0.0962,0 -0.36974,0.61065 -0.44227,0.98749 -0.0221,0.11493 -0.11984,0.29465 -0.21715,0.39938 -0.15536,0.16719 -0.20601,0.37768 -0.16485,0.68519 0.007,0.0497 -0.0507,0.1293 -0.12741,0.17694 -0.0767,0.0476 -0.16178,0.21399 -0.18902,0.3697 -0.0272,0.15571 -0.1005,0.32068 -0.16279,0.36661 -0.0623,0.0459 -0.12362,0.2211 -0.13629,0.38927 -0.0127,0.16816 -0.0657,0.30575 -0.11782,0.30575 -0.0521,0 -0.35429,0.78037 -0.67146,1.73416 -0.68458,2.05862 -0.72546,3.08369 -0.14608,3.66307 0.18458,0.18458 0.38337,0.31967 0.44176,0.30021 0.0584,-0.0195 0.10616,0.0236 0.10616,0.0958 0,0.23195 0.44319,0.25832 3.25568,0.19367 1.51813,-0.0349 3.03096,-0.056 3.36184,-0.0469 z"
           id="path104"
           inkscape:connector-curvature="0"
           transform="matrix(0.75000002,0,0.00291365,-0.75000002,-0.55060034,283.46001)" /><path
           style="fill:#ffffff;stroke:none;stroke-width:0.14155118"
           d="m 130.63969,186.82729 c -0.69737,-0.50516 -1.66427,-1.59509 -2.15392,-2.42797 -0.48529,-0.82545 -0.51144,-2.05188 -0.062,-2.90919 0.42222,-0.80542 1.47298,-1.93571 2.28236,-2.45508 0.75932,-0.48726 2.72517,-1.04887 2.87478,-0.82129 0.0504,0.0767 0.21538,0.10711 0.36658,0.0676 0.44026,-0.11513 1.6252,1.19656 2.0103,2.22534 0.27214,0.72701 0.30958,1.05313 0.26005,2.26482 -0.0684,1.67208 -0.39023,2.491 -1.34378,3.41894 -0.727,0.70748 -1.62347,1.03992 -2.80432,1.03992 -0.73565,0 -0.9615,-0.0637 -1.43002,-0.40306 z"
           id="path106"
           inkscape:connector-curvature="0"
           transform="matrix(0.75000002,0,0.00291365,-0.75000002,-0.55060034,283.46001)" /><path
           style="fill:#ffffff;stroke:none;stroke-width:0.14155118"
           d="m 310.82827,237.90821 c -1.18617,-0.25225 -1.74482,-0.71871 -1.74482,-1.45691 0,-0.57068 0.78262,-1.93293 2.05138,-3.57069 5.26371,-6.79457 5.91941,-7.86865 6.79265,-11.12681 0.89659,-3.34524 1.05888,-7.26561 0.58828,-14.21086 -0.62745,-9.2601 0.10266,-16.37987 2.54569,-24.82476 2.14723,-7.42239 5.07735,-12.70996 8.44688,-15.24288 1.94566,-1.46258 3.80235,-2.10313 6.11597,-2.10999 1.42529,-0.004 1.62564,0.0291 2.36734,0.39327 1.91842,0.94207 2.88085,3.01322 3.03813,6.53812 0.16263,3.64478 -0.61135,8.61382 -2.22687,14.29667 -1.18569,4.17088 -2.29608,7.28805 -6.83262,19.18107 -3.82754,10.03429 -4.75881,13.3335 -4.56573,16.17503 0.19897,2.92827 1.02454,4.9129 2.7523,6.61639 2.17783,2.14724 5.23604,3.08894 10.95746,3.37407 3.06135,0.15257 3.64634,0.45455 3.43548,1.77346 -0.31375,1.96247 -2.90022,3.92353 -5.62273,4.26315 -2.45119,0.30578 -6.74889,-1.1806 -10.45109,-3.61455 -1.73748,-1.14228 -2.61242,-1.82037 -4.17576,-3.23626 -1.42049,-1.2865 -2.04899,-1.58309 -2.74436,-1.29506 -0.68547,0.28393 -1.43107,1.15155 -2.60018,3.02571 -1.58662,2.54342 -3.22347,4.10562 -5.05375,4.82324 -0.74809,0.29331 -2.24563,0.40468 -3.07365,0.22859 z M 324.3159,211.4747 c 1.13151,-1.47923 3.46434,-7.89417 7.65836,-21.05945 2.89413,-9.08482 3.16091,-10.10555 3.25576,-12.4565 0.0884,-2.19156 -0.058,-2.88693 -0.75433,-3.58329 -0.45,-0.45001 -0.53806,-0.48129 -1.18098,-0.41951 -0.3821,0.0367 -1.06076,0.25168 -1.50813,0.47771 -1.00203,0.50625 -2.82821,2.20008 -3.5706,3.31181 -1.43286,2.14573 -3.65049,8.58168 -4.46542,12.95945 -1.00248,5.38529 -1.31396,15.06795 -0.63728,19.8106 0.25965,1.81981 0.43643,1.96081 1.20262,0.95918 z"
           id="path108"
           inkscape:connector-curvature="0"
           transform="matrix(0.75000002,0,0.00291365,-0.75000002,-0.55060034,283.46001)" /><path
           style="fill:#ffffff;stroke:none;stroke-width:0.14155118"
           d="m 137.48048,148.79335 c -2.42375,-0.67068 -3.22001,-1.55752 -6.00507,-6.68822 -3.23616,-5.96174 -5.95021,-12.09737 -9.8748,-22.32392 -4.44383,-11.57956 -6.25145,-16.96129 -8.01123,-23.851378 -0.7206,-2.821346 -0.8029,-4.05898 -0.30323,-4.559796 l 0.32186,-0.322607 0.62603,0.353322 c 0.34432,0.194327 5.21773,3.442676 10.82981,7.218554 16.41837,11.046485 34.77943,22.874775 45.36394,29.223695 15.69917,9.41684 18.47674,11.46003 17.19825,12.65113 -0.34595,0.3223 -0.49147,0.3552 -4.45237,1.00669 -4.29353,0.70621 -42.88967,7.33222 -44.16397,7.58188 -0.15571,0.0305 -0.84386,-0.0997 -1.52922,-0.28935 z"
           id="path110"
           inkscape:connector-curvature="0"
           transform="matrix(0.75000002,0,0.00291365,-0.75000002,-0.55060034,283.46001)" /><path
           style="fill:#ffffff;stroke:none;stroke-width:0.14155118"
           d="m 195.2763,152.31416 c -24.65338,-0.42288 -29.59232,-0.56959 -37.51107,-1.11428 -2.95144,-0.20301 -10.21383,-0.88935 -10.29767,-0.97319 -0.0813,-0.0813 1.91518,-0.65667 2.99623,-0.86351 0.60488,-0.11573 1.7467,-0.2476 2.53738,-0.29303 1.23902,-0.0712 21.15147,-3.38783 31.76306,-5.29048 4.42182,-0.79283 6.87273,-1.13642 8.1057,-1.13634 1.38139,8e-5 3.25024,0.28764 6.34308,0.976 1.37713,0.3065 4.7333,0.97837 7.45816,1.49304 6.90164,1.30358 27.44573,5.32306 27.50382,5.38116 0.0787,0.0787 -1.90982,0.50088 -3.36007,0.71335 -5.39957,0.79106 -22.64628,1.32842 -35.53862,1.10728 z"
           id="path112"
           inkscape:connector-curvature="0"
           transform="matrix(0.75000002,0,0.00291365,-0.75000002,-0.55060034,283.46001)" /><path
           style="fill:#ffffff;stroke:none;stroke-width:0.14155118"
           d="m 232.50426,147.59231 c -0.81746,-0.15423 -4.289,-0.76048 -7.71454,-1.34721 -13.00015,-2.22672 -22.96357,-4.12365 -25.20862,-4.79945 -0.76971,-0.2317 -1.57061,-0.71328 -1.79983,-1.08222 -0.2158,-0.34735 -0.003,-0.92573 0.57677,-1.56744 0.90892,-1.00607 6.26085,-4.99376 13.83363,-10.30735 6.62075,-4.64559 7.56988,-5.32968 28.09791,-20.2515 10.78266,-7.83792 20.11442,-14.684633 20.73724,-15.214926 2.02675,-1.725637 3.39741,-2.639806 4.44549,-2.964949 l 0.3405,-0.105633 -0.0857,0.917866 c -0.16037,1.717426 -1.64128,5.620211 -4.49828,11.854792 -1.83325,4.00054 -8.19935,16.73892 -11.66148,23.33428 -2.41889,4.60798 -8.57188,15.85272 -10.11029,18.4768 -1.73655,2.96203 -3.45385,3.71708 -6.95279,3.05694 z"
           id="path114"
           inkscape:connector-curvature="0"
           transform="matrix(0.75000002,0,0.00291365,-0.75000002,-0.55060034,283.46001)" /><path
           style="fill:#ffffff;stroke:none;stroke-width:0.14155118"
           d="m 213.28038,123.30309 c -0.60418,-0.3081 -0.95847,-0.7622 -3.52091,-4.51274 -3.76474,-5.51031 -5.4239,-8.60249 -5.4239,-10.10855 0,-0.91606 0.76533,-1.31141 7.14834,-3.69261 8.97637,-3.34868 36.56612,-13.0373 44.73017,-15.707784 1.94633,-0.63665 4.04837,-1.340247 4.67119,-1.563549 1.74456,-0.625478 2.47715,-0.563893 2.47715,0.208239 0,1.01469 -1.39057,2.348046 -5.31614,5.09742 -15.16701,10.622604 -35.97116,25.382874 -41.98922,29.790794 -1.00692,0.73751 -1.95994,0.90527 -2.77668,0.48878 z"
           id="path116"
           inkscape:connector-curvature="0"
           transform="matrix(0.75000002,0,0.00291365,-0.75000002,-0.55060034,283.46001)" /><path
           style="fill:#ffffff;stroke:none;stroke-width:0.14155118"
           d="m 192.0914,138.97022 c -0.59588,-0.14455 -0.90948,-0.3163 -5.5205,-3.02336 -9.90259,-5.81366 -15.9462,-9.72832 -16.90935,-10.95276 -0.74721,-0.94992 0.0863,-3.40535 2.21245,-6.51769 0.52026,-0.76157 1.466,-2.15382 2.10165,-3.09389 3.31171,-4.89774 9.76065,-12.35394 12.68836,-14.67017 1.68188,-1.330596 2.43871,-1.704652 3.30957,-1.635733 2.74904,0.217559 8.68795,7.002973 17.00656,19.430633 1.35491,2.02418 2.8119,4.1853 3.23776,4.80248 0.94045,1.36299 1.16783,2.01164 0.91725,2.61661 -0.49582,1.197 -4.18915,4.11644 -10.55068,8.33993 -2.17989,1.44726 -4.40932,2.95897 -4.95429,3.35936 -1.64739,1.21035 -2.60002,1.57231 -3.53878,1.34459 z"
           id="path118"
           inkscape:connector-curvature="0"
           transform="matrix(0.75000002,0,0.00291365,-0.75000002,-0.55060034,283.46001)" /><path
           style="fill:#ffffff;stroke:none;stroke-width:0.14155118"
           d="m 165.90443,122.33481 c -2.63153,-1.78285 -23.73324,-15.45588 -28.94722,-18.75661 -6.55291,-4.148325 -12.09812,-7.932945 -16.91537,-11.544769 -4.46892,-3.350661 -6.44058,-5.126087 -6.44058,-5.799576 0,-0.227401 0.10173,-0.245138 0.98247,-0.1713 1.85132,0.155209 10.5645,3.694288 19.4009,7.880178 5.10613,2.418819 34.30246,17.163577 36.83552,18.602697 0.71339,0.4053 0.88739,0.85994 0.6869,1.79479 -0.34399,1.60395 -1.31179,3.61524 -2.93408,6.09762 -1.27998,1.95857 -1.9132,2.40871 -2.66854,1.89697 z"
           id="path120"
           inkscape:connector-curvature="0"
           transform="matrix(0.75000002,0,0.00291365,-0.75000002,-0.55060034,283.46001)" /></g></g></g></svg>